<svg width="28" height="28" viewBox="0 0 28 28" fill="none" xmlns="http://www.w3.org/2000/svg">
<path d="M24.1265 22.7051H4.85222C3.83069 22.7051 3 21.874 3 20.8519V6.85325C3 5.83116 3.83069 5 4.85222 5H24.1265C25.148 5 25.9787 5.83116 25.9787 6.85325V20.8519C25.9787 21.874 25.148 22.7051 24.1265 22.7051ZM4.85595 6.81956C4.83724 6.81956 4.82228 6.83453 4.82228 6.85325V20.8519C4.82228 20.8706 4.83724 20.8856 4.85595 20.8856H24.1302C24.1489 20.8856 24.1639 20.8706 24.1639 20.8519V6.85325C24.1639 6.83453 24.1489 6.81956 24.1302 6.81956H4.85595Z" fill="white"/>
<path d="M14.4871 16.7613C14.0942 16.7613 13.7013 16.6378 13.372 16.3907L13.286 16.3158L3.25781 6.56657L4.52629 5.26367L14.4834 14.9455C14.4871 14.9455 14.4871 14.9455 14.4908 14.9455L24.4142 5.26367L25.6827 6.56657L15.6022 16.3907C15.2729 16.6378 14.88 16.7613 14.4871 16.7613Z" fill="white"/>
</svg>
