<svg width="28" height="28" viewBox="0 0 28 28" fill="none" xmlns="http://www.w3.org/2000/svg">
<path d="M14.1067 5.81956C16.8046 5.81956 17.1264 5.83079 18.1891 5.87946C19.1732 5.92439 19.7083 6.08912 20.0675 6.22765C20.539 6.4111 20.8757 6.63199 21.2312 6.98393C21.5867 7.3396 21.8037 7.67656 21.9871 8.14829C22.1255 8.50397 22.2902 9.03935 22.3351 10.0278C22.3837 11.0948 22.3949 11.413 22.3949 14.1124C22.3949 16.8118 22.3837 17.13 22.3351 18.197C22.2902 19.1817 22.1255 19.7171 21.9871 20.0765C21.8037 20.5482 21.5829 20.8852 21.2312 21.2409C20.8757 21.5965 20.539 21.8137 20.0675 21.9972C19.712 22.1357 19.1769 22.3004 18.1891 22.3453C17.1227 22.394 16.8046 22.4052 14.1067 22.4052C11.4089 22.4052 11.0871 22.394 10.0244 22.3453C9.04027 22.3004 8.50519 22.1357 8.14597 21.9972C7.6745 21.8137 7.33773 21.5928 6.98225 21.2409C6.62678 20.8852 6.40975 20.5482 6.2264 20.0765C6.08795 19.7208 5.92331 19.1854 5.87841 18.197C5.82976 17.13 5.82228 16.8118 5.82228 14.1124C5.82228 11.413 5.83351 11.091 5.88215 10.0278C5.92705 9.0431 6.09169 8.50771 6.23014 8.14829C6.41349 7.67656 6.63426 7.3396 6.986 6.98393C7.34147 6.62825 7.67824 6.4111 8.14971 6.22765C8.50519 6.08912 9.04027 5.92439 10.0281 5.87946C11.0871 5.83079 11.4089 5.81956 14.1067 5.81956ZM14.1067 4C11.3602 4 11.016 4.01123 9.93831 4.0599C8.8644 4.10857 8.131 4.2808 7.4874 4.5279C6.82135 4.78623 6.26008 5.13442 5.69506 5.69601C5.13378 6.2576 4.78579 6.82294 4.5276 7.48561C4.2769 8.12957 4.10851 8.86339 4.05613 9.94164C4.01123 11.0199 4 11.3643 4 14.1124C4 16.8605 4.01123 17.2049 4.05987 18.2832C4.10851 19.3614 4.28064 20.0952 4.53134 20.7392C4.78953 21.4056 5.13378 21.9672 5.6988 22.5288C6.26008 23.0904 6.8251 23.4386 7.4874 23.6969C8.131 23.9477 8.8644 24.1162 9.94206 24.1686C11.0197 24.2173 11.364 24.2285 14.1105 24.2285C16.857 24.2285 17.2012 24.2173 18.2789 24.1686C19.3565 24.12 20.09 23.9477 20.7335 23.6969C21.3996 23.4386 21.9609 23.0941 22.5222 22.5288C23.0834 21.9672 23.4314 21.4019 23.6896 20.7392C23.9403 20.0952 24.1087 19.3614 24.1611 18.2832C24.2097 17.2049 24.221 16.8605 24.221 14.1124C24.221 11.3643 24.2097 11.0199 24.1611 9.94164C24.1124 8.86339 23.9403 8.12957 23.6896 7.48561C23.4314 6.81919 23.0872 6.2576 22.5222 5.69601C21.9609 5.13442 21.3959 4.78623 20.7335 4.5279C20.09 4.27705 19.3565 4.10857 18.2789 4.05616C17.1975 4.01123 16.8533 4 14.1067 4Z" fill="white"/>
<path d="M14.104 8.91992C11.2378 8.91992 8.91406 11.2449 8.91406 14.1128C8.91406 16.9806 11.2378 19.3056 14.104 19.3056C16.9703 19.3056 19.294 16.9806 19.294 14.1128C19.294 11.2449 16.9703 8.91992 14.104 8.91992ZM14.104 17.4823C12.2443 17.4823 10.7363 15.9735 10.7363 14.1128C10.7363 12.252 12.2443 10.7432 14.104 10.7432C15.9637 10.7432 17.4717 12.252 17.4717 14.1128C17.4754 15.9735 15.9637 17.4823 14.104 17.4823Z" fill="white"/>
<path d="M19.5014 9.92705C20.171 9.92705 20.7138 9.38396 20.7138 8.71402C20.7138 8.04407 20.171 7.50098 19.5014 7.50098C18.8319 7.50098 18.2891 8.04407 18.2891 8.71402C18.2891 9.38396 18.8319 9.92705 19.5014 9.92705Z" fill="white"/>
</svg>
