<svg width="28" height="28" viewBox="0 0 28 28" fill="none" xmlns="http://www.w3.org/2000/svg">
<path d="M26.2823 7.74106C25.9868 6.66114 25.1116 5.81084 24 5.52382C21.9873 5 13.9107 5 13.9107 5C13.9107 5 5.83413 5 3.82145 5.52382C2.70986 5.81084 1.83462 6.66114 1.53918 7.74106C1 9.6964 1 13.7793 1 13.7793C1 13.7793 1 17.8622 1.53918 19.8175C1.83462 20.8974 2.70986 21.7477 3.82145 22.0348C5.83413 22.5586 13.9107 22.5586 13.9107 22.5586C13.9107 22.5586 21.9873 22.5586 24 22.0348C25.1116 21.7477 25.9868 20.8974 26.2823 19.8175C26.8214 17.8622 26.8214 13.7793 26.8214 13.7793C26.8214 13.7793 26.8214 9.6964 26.2823 7.74106ZM11.3293 17.5393V10.0157L18.0358 13.7793L11.3293 17.5393Z" fill="white"/>
</svg>
