<svg width="77" height="56" viewBox="0 0 77 56" fill="none" xmlns="http://www.w3.org/2000/svg">
<path d="M63.103 23.8906H52.3125V32.9395L63.103 26.2442V23.8906Z" fill="#8A8C8F"/>
<path d="M44.0458 34.7826L41.0469 38.379L44.2618 43.8301H49.4519L44.0458 34.7826Z" fill="#8A8C8F"/>
<path d="M27.0118 34.7826V36.3575H23.4531V38.4805H27.0234V40.0554H23.472L26.8958 42.2538H27.0118V42.3292L29.3494 43.8301V41.5664V34.7812L27.0118 34.7826Z" fill="#8A8C8F"/>
<path d="M40.5391 17.9391L42.0603 18.96H42.4329L41.3279 15.6681L40.5391 17.9391Z" fill="#8A8C8F"/>
<path d="M41.9766 12.9999L44.8319 20.8176L46.6663 22.0474V12.9999H41.9766Z" fill="#8A8C8F"/>
<path d="M66.5374 16.9648C67.3132 16.9648 67.8208 16.4689 67.8208 15.7699C67.8208 15.651 67.8048 15.5379 67.7773 15.432L65.5078 16.9634H66.5374" fill="#8A8C8F"/>
<path d="M69.2629 14.4298C69.4761 14.8286 69.5892 15.2854 69.5892 15.7697C69.5892 17.04 68.8134 17.8275 67.9375 18.1465L69.9575 22.0474H71.3816V12.9999L69.2629 14.4298Z" fill="#8A8C8F"/>
<path d="M64.8672 18.4394V22.0488H67.9038L66.1375 18.4394H64.8672Z" fill="#8A8C8F"/>
<path d="M0 31.266V32.9395H9.14459V23.8906L0 31.266Z" fill="#8A8C8F"/>
<path d="M12.4141 23.8906C13.3538 23.8906 14.2064 24.1574 14.8024 24.7549C15.819 25.7714 15.7175 27.0171 15.7175 28.3773C15.7175 29.4852 15.7842 30.567 15.2592 31.4806L17.5766 32.9395V23.8906H12.4141Z" fill="#8A8C8F"/>
<path d="M20.2665 34.7826L19.5312 37.5219L21.692 38.9097V34.7826H20.2665" fill="#8A8C8F"/>
<path d="M33.1797 13C34.9271 13 35.9582 13.9542 36.3932 15.1549L39.1441 16.9995L40.5986 13H33.1797Z" fill="#8A8C8F"/>
<path d="M61.1002 19.9388C60.9682 20.3478 60.7565 20.7176 60.4172 21.0555C59.782 21.6906 59.0062 22.0459 57.9766 22.0459H63.1043V18.5844L61.1002 19.9388Z" fill="#8A8C8F"/>
<path d="M10.0182 13.7044L10.0078 13.7134C10.0108 13.7104 10.0153 13.7074 10.0182 13.7044Z" fill="#8A8C8F"/>
<path d="M8.86671 20.8554L10.0109 19.7112C10.5692 20.2695 11.3232 20.4638 12.1397 20.4725C13.1185 20.4551 13.6507 20.0766 13.6681 19.3922H13.6667C13.6594 19.092 13.5724 18.8382 13.3897 18.6685C13.2128 18.5032 13.0083 18.4148 12.5892 18.351L11.4973 18.1987C10.7214 18.0841 10.1501 17.842 9.74404 17.449C9.3119 17.0168 9.09583 16.4324 9.09583 15.6697C9.09583 15.6581 9.09583 15.645 9.09728 15.6334C9.12483 14.8605 9.43371 14.2065 9.97171 13.7439C9.97171 13.7439 7.73415 15.6378 7.61814 15.7436C7.50212 15.8495 6.21875 16.94 6.21875 18.1001V22.0488H12.0715C12.0715 22.0488 12.0715 22.0488 12.0701 22.0488C10.7475 22.0329 9.73534 21.7341 8.86671 20.8554Z" fill="#8A8C8F"/>
<path d="M29.5321 27.7653C30.0339 27.8944 30.392 28.0873 30.6734 28.3512C31.1563 28.808 31.3723 29.4693 31.3723 30.2697C31.3723 30.2741 31.3723 30.2741 31.3723 30.2741C31.3245 31.9244 29.957 32.8814 28.1719 32.9351L33.3358 32.9395V23.8906L29.5321 27.7653Z" fill="#8A8C8F"/>
<path d="M71.375 22.0474V12.9999H76.7115V14.5763H73.1413V16.6978H76.7115V18.2741H73.1413V20.4725H76.7115V22.0488L71.375 22.0474Z" fill="white"/>
<path d="M29.3516 43.8301V34.7826H34.6765V36.3575H31.1178V38.4805H34.6881V40.0554H31.1178V42.2538H34.6765V43.8301H29.3516Z" fill="white"/>
<path d="M17.5703 32.9395V23.8906H22.9068V25.4669H19.3366V27.5884H22.9068V29.1647H19.3366V31.3631H22.9068V32.9395H17.5703Z" fill="white"/>
<path d="M17.2344 22.0474V12.9999H19.0006V22.0474H17.2344Z" fill="white"/>
<path d="M50.0899 14.5762H48.4381V17.0545H50.0899C50.8903 17.0545 51.3979 16.5586 51.3979 15.8219C51.3979 15.0852 50.8903 14.5762 50.0899 14.5762ZM50.1783 18.6424H48.4381V22.0474H46.6719V12.9999H50.1798C52.0475 12.9999 53.1656 14.2833 53.1656 15.8205C53.1656 17.3576 52.0461 18.6424 50.1783 18.6424Z" fill="white"/>
<path d="M50.7402 32.9395L47.1569 27.3854V32.9395H45.3906V23.8906H46.9655L50.5488 29.4316V23.8906H52.315V32.9395H50.7402Z" fill="white"/>
<path d="M42.205 43.8301L39.8804 39.7131L38.7116 41.1111V43.8301H36.9453V34.7826H38.7116V38.7212L41.9019 34.7826H44.0496L41.0507 38.379L44.2642 43.8301H42.205Z" fill="white"/>
<path d="M40.1421 27.906V29.3039H41.8069V29.6476C41.8069 30.1174 41.6923 30.5249 41.4008 30.8541C41.1094 31.1717 40.6772 31.3631 40.1436 31.3631C39.6607 31.3631 39.2662 31.1848 39.0124 30.8933C38.6731 30.5162 38.5832 30.087 38.5803 28.3961C38.5832 26.7386 38.6746 26.3239 39.0124 25.9497C39.2662 25.6583 39.6607 25.4668 40.1436 25.4668C41.0455 25.4668 41.5661 25.9367 41.7706 26.7879H43.547C43.3063 25.2624 42.2376 23.8905 40.1421 23.8905C39.1256 23.8905 38.3381 24.2458 37.7015 24.881C36.8184 25.7641 36.8111 26.8517 36.8126 28.3323C36.8126 28.3338 36.8126 28.3352 36.8126 28.3367C36.8126 29.8999 36.7865 31.031 37.7015 31.9461C38.3367 32.5812 39.1502 32.9365 40.1421 32.9365C41.1079 32.9365 41.9722 32.6566 42.6958 31.9069C43.331 31.2457 43.5601 30.4582 43.5601 29.1488V28.4541V28.3309V27.9031L40.1421 27.906Z" fill="white"/>
<path d="M33.3359 32.9395V23.8906H35.1022V32.9395H33.3359Z" fill="white"/>
<path d="M26.3027 22.0474L22.7194 16.4948V22.0474H20.9531V12.9999H22.5294L26.1127 18.5409V12.9999H27.879V22.0474H26.3027Z" fill="white"/>
<path d="M31.3688 30.2697C31.3688 29.4693 31.1528 28.808 30.6699 28.3512C30.2885 27.9959 29.7679 27.7668 28.9413 27.6522L27.874 27.5C27.5056 27.4492 27.2127 27.31 27.0358 27.1447C26.8545 26.9765 26.7791 26.7503 26.7704 26.5327C26.7893 25.9309 27.2417 25.435 28.151 25.4292C28.7339 25.4335 29.3952 25.522 29.9477 26.0513L31.0657 24.9463C30.2899 24.1966 29.3879 23.892 28.1437 23.892C28.1263 23.892 28.1104 23.8935 28.093 23.8935C28.093 23.8935 27.4505 23.8935 26.8719 24.1066C26.8647 24.1095 26.8589 24.1124 26.8516 24.1153C25.7568 24.5054 25.1071 25.3857 25.0665 26.524C25.0665 26.5356 25.0651 26.5487 25.0651 26.5603C25.0651 27.3231 25.2811 27.9075 25.7133 28.3396C26.1208 28.734 26.6921 28.9748 27.4665 29.0893L28.5584 29.2416C28.9775 29.3054 29.1806 29.3939 29.3589 29.5592C29.5416 29.7288 29.6287 29.9826 29.6359 30.2828H29.6374C29.62 30.9673 29.0878 31.3457 28.1089 31.3631C27.2925 31.3544 26.5384 31.1616 25.9801 30.6018L24.8359 31.746C25.7031 32.6262 26.7168 32.925 28.0407 32.9395L28.1684 32.9351C29.9535 32.8829 31.321 31.9258 31.3688 30.2741C31.3688 30.2741 31.3688 30.2741 31.3688 30.2697Z" fill="white"/>
<path d="M13.5636 26.0266C13.259 25.6583 12.8515 25.4669 12.2425 25.4669H10.9083V31.3631H12.2425C12.8515 31.3631 13.259 31.1717 13.5636 30.8034C13.8942 30.3974 13.9449 29.7491 13.9449 28.3759C13.9449 27.004 13.8927 26.4327 13.5636 26.0266ZM14.7962 32.0752C14.1987 32.6726 13.3475 32.9395 12.4078 32.9395H9.14062V23.8906H12.4063C13.346 23.8906 14.1987 24.1574 14.7947 24.7549C15.8113 25.7714 15.7098 27.0171 15.7098 28.3773C15.7112 29.7361 15.8127 31.0586 14.7962 32.0752Z" fill="white"/>
<path d="M15.3923 19.3791C15.3923 18.5786 15.1762 17.9174 14.6933 17.4606C14.3119 17.1038 13.7913 16.8762 12.9647 16.7616L11.8974 16.6093C11.5291 16.5586 11.2362 16.4194 11.0592 16.2541C10.878 16.0858 10.8026 15.8596 10.7939 15.6421C10.8127 15.0403 11.2652 14.5443 12.1744 14.5385C12.7574 14.5443 13.4186 14.6314 13.9711 15.1607L15.0892 14.0557C14.3134 13.3059 13.4114 13.0014 12.1671 13.0014C12.1497 13.0014 12.1338 13.0028 12.1164 13.0028C12.1164 13.0028 11.474 13.0028 10.8954 13.216C10.8881 13.2189 10.8823 13.2218 10.8751 13.2247C9.78021 13.6148 9.13055 14.495 9.08995 15.6334C9.08995 15.645 9.0885 15.6581 9.0885 15.6697C9.0885 16.4324 9.30457 17.0168 9.73671 17.449C10.1427 17.8434 10.7156 18.0841 11.4899 18.1987L12.5819 18.351C13.001 18.4148 13.2054 18.5032 13.3824 18.6685C13.5651 18.8382 13.6521 19.092 13.6593 19.3922H13.6608C13.6434 20.0766 13.1112 20.4551 12.1323 20.4725C11.3159 20.4638 10.5618 20.271 10.0035 19.7112L8.85938 20.8554C9.72656 21.7356 10.7402 22.0343 12.0642 22.0488L12.1918 22.0445C13.9769 21.9923 15.3444 21.0337 15.3923 19.3835C15.3923 19.3835 15.3923 19.3835 15.3923 19.3791Z" fill="white"/>
<path d="M21.6875 43.8301V34.7826H27.0139V36.3575H23.4552V38.4805H27.0255V40.0554H23.4552V42.2538H27.0139V43.8301H21.6875Z" fill="white"/>
<path d="M17.8328 43.8301H16.358L14.6932 38.3413L13.0285 43.8301H11.5551L9.14062 34.7826H10.9838L12.3802 40.4875L14.0334 34.7826H15.3545L17.0062 40.4875L18.4172 34.7826H20.2603L17.8328 43.8301Z" fill="white"/>
<path d="M66.5326 14.5762H64.8678V16.9661H66.5326C67.3084 16.9661 67.816 16.4701 67.816 15.7712C67.816 15.0707 67.3084 14.5762 66.5326 14.5762ZM67.9044 22.0474L66.1382 18.438H64.8678V22.0474H63.1016V12.9999H66.6472C68.4903 12.9999 69.5822 14.2572 69.5822 15.7697C69.5822 17.04 68.8064 17.8275 67.9305 18.1465L69.9506 22.0474H67.9044Z" fill="white"/>
<path d="M59.1051 19.9896C58.8514 20.2811 58.4569 20.4725 57.974 20.4725C57.4911 20.4725 57.0851 20.2811 56.8299 19.9896C56.492 19.614 56.4006 19.1978 56.3977 17.5142C56.4006 15.848 56.492 15.4333 56.8299 15.0591C57.0836 14.7677 57.4911 14.5762 57.974 14.5762C58.4569 14.5762 58.8514 14.7677 59.1051 15.0591C59.443 15.4347 59.5474 15.8495 59.5503 17.5244C59.5474 19.1993 59.443 19.614 59.1051 19.9896ZM61.3166 17.5026C61.3166 17.4852 61.3166 17.4678 61.3166 17.4504C61.3166 15.9655 61.2992 14.8764 60.4146 13.9918C59.7795 13.3567 59.0036 13.0014 57.974 13.0014C56.9444 13.0014 56.157 13.3567 55.5218 13.9918C54.6373 14.8764 54.6315 15.9655 54.6329 17.4504C54.6329 19.0122 54.6082 20.1419 55.5218 21.0569C56.157 21.6921 56.9459 22.0474 57.974 22.0474C59.0036 22.0474 59.778 21.6921 60.4146 21.0569C61.3152 20.1564 61.3166 19.047 61.3166 17.5244C61.3166 17.5171 61.3166 17.5099 61.3166 17.5026Z" fill="white"/>
<path d="M41.3317 15.6682L40.1876 18.96H42.4367L41.3317 15.6682ZM43.4417 22.0474L42.908 20.4464H39.6931L39.1464 22.0474H37.3047L40.5951 12.9999H41.9799L45.2848 22.0474H43.4417Z" fill="white"/>
<path d="M33.1783 17.0154V18.4133H34.843V18.757C34.843 19.2268 34.7285 19.6343 34.437 19.9635C34.1441 20.2811 33.7134 20.4725 33.1783 20.4725C32.6954 20.4725 32.3009 20.2941 32.0472 20.0026C31.7078 19.6256 31.6179 19.1964 31.615 17.5055C31.6179 15.848 31.7107 15.4333 32.0472 15.0591C32.3009 14.7676 32.6954 14.5762 33.1783 14.5762C34.0803 14.5762 34.6009 15.0461 34.8053 15.8973H36.5847C36.3439 14.3718 35.2752 12.9999 33.1797 12.9999C32.1632 12.9999 31.3757 13.3552 30.7406 13.9904C29.8574 14.8735 29.8502 15.9611 29.8516 17.4417C29.8516 17.4432 29.8516 17.4446 29.8516 17.446C29.8516 19.0093 29.8255 20.1404 30.7406 21.0555C31.3757 21.6906 32.1893 22.0459 33.1797 22.0459C34.1455 22.0459 35.0098 21.766 35.7334 21.0163C36.3686 20.355 36.5977 19.5676 36.5977 18.2581V17.5635V17.4402V17.0125L33.1783 17.0154Z" fill="white"/>
</svg>
