<svg width="706" height="284" viewBox="0 0 706 284" fill="none" xmlns="http://www.w3.org/2000/svg">
<path d="M580.198 100.133H480.984V183.333L580.198 121.773V100.133Z" fill="#FF485B"/>
<path d="M404.972 200.28L377.398 233.347L406.958 283.467H454.678L404.972 200.28Z" fill="#FF485B"/>
<path d="M248.4 200.28V214.76H215.68V234.28H248.506V248.76H215.853L247.333 268.973H248.4V269.667L269.893 283.467V262.653V200.267L248.4 200.28Z" fill="#FF485B"/>
<path d="M372.758 45.4131L386.744 54.7998H390.171L380.011 24.5331L372.758 45.4131Z" fill="#FF485B"/>
<path d="M385.977 -0.000144958L412.23 71.8799L429.097 83.1865V-0.000144958H385.977Z" fill="#FF485B"/>
<path d="M611.748 36.4531C618.881 36.4531 623.548 31.8931 623.548 25.4665C623.548 24.3731 623.401 23.3331 623.148 22.3598L602.281 36.4398H611.748" fill="#FF485B"/>
<path d="M636.804 13.1465C638.764 16.8132 639.804 21.0132 639.804 25.4665C639.804 37.1465 632.671 44.3865 624.617 47.3199L643.19 83.1865H656.284V-0.000144958L636.804 13.1465Z" fill="#FF485B"/>
<path d="M596.438 50.0135V83.2002H624.358L608.118 50.0135H596.438Z" fill="#FF485B"/>
<path d="M0 167.946V183.333H84.08V100.133L0 167.946Z" fill="#FF485B"/>
<path d="M114.109 100.133C122.749 100.133 130.589 102.586 136.069 108.08C145.416 117.426 144.483 128.88 144.483 141.386C144.483 151.573 145.096 161.52 140.269 169.92L161.576 183.333V100.133H114.109Z" fill="#FF485B"/>
<path d="M186.323 200.28L179.562 225.467L199.429 238.227V200.28H186.323Z" fill="#FF485B"/>
<path d="M305.039 9.91821e-05C321.106 9.91821e-05 330.586 8.77343 334.586 19.8134L359.879 36.7734L373.252 9.91821e-05H305.039Z" fill="#FF485B"/>
<path d="M561.775 63.8005C560.561 67.5605 558.615 70.9605 555.495 74.0672C549.655 79.9072 542.521 83.1738 533.055 83.1738H580.201V51.3472L561.775 63.8005Z" fill="#FF485B"/>
<path d="M92.0933 6.48057L92 6.56055C92.0267 6.53388 92.0667 6.50723 92.0933 6.48057Z" fill="#FF485B"/>
<path d="M81.5029 72.2269L92.0229 61.7069C97.1562 66.8402 104.09 68.6269 111.596 68.7069C120.596 68.5469 125.49 65.0669 125.65 58.7735H125.636C125.57 56.0135 124.77 53.6802 123.09 52.1202C121.463 50.6002 119.583 49.7869 115.73 49.2002L105.69 47.8002C98.5562 46.7469 93.3029 44.5202 89.5696 40.9069C85.5962 36.9335 83.6096 31.5602 83.6096 24.5469C83.6096 24.4402 83.6096 24.3202 83.6229 24.2135C83.8762 17.1069 86.7162 11.0935 91.6629 6.84021C91.6629 6.84021 71.0896 24.2535 70.0229 25.2269C68.9562 26.2002 57.1562 36.2269 57.1562 46.8935V83.2002H110.97C110.97 83.2002 110.97 83.2002 110.956 83.2002C98.7962 83.0535 89.4896 80.3069 81.5029 72.2269Z" fill="#FF485B"/>
<path d="M271.522 135.76C276.136 136.946 279.429 138.72 282.016 141.146C286.456 145.346 288.442 151.426 288.442 158.786C288.442 158.826 288.442 158.826 288.442 158.826C288.002 174 275.429 182.8 259.016 183.293L306.496 183.333V100.133L271.522 135.76Z" fill="#FF485B"/>
<path d="M656.266 83.1869V0.000198364H705.332V14.4935H672.506V34.0002H705.332V48.4935H672.506V68.7069H705.332V83.2002L656.266 83.1869Z" fill="white"/>
<path d="M269.891 283.467V200.28H318.851V214.76H286.131V234.28H318.957V248.76H286.131V268.973H318.851V283.467H269.891Z" fill="white"/>
<path d="M161.57 183.333V100.133H210.637V114.626H177.81V134.133H210.637V148.626H177.81V168.84H210.637V183.333H161.57Z" fill="white"/>
<path d="M158.43 83.1865V-0.000144958H174.67V83.1865H158.43Z" fill="white"/>
<path d="M460.536 14.4932H445.349V37.2799H460.536C467.896 37.2799 472.563 32.7199 472.563 25.9465C472.563 19.1732 467.896 14.4932 460.536 14.4932ZM461.349 51.8799H445.349V83.1865H429.109V-0.000144958H461.363C478.536 -0.000144958 488.816 11.7999 488.816 25.9332C488.816 40.0665 478.523 51.8799 461.349 51.8799Z" fill="white"/>
<path d="M466.507 183.333L433.56 132.266V183.333H417.32V100.133H431.8L464.747 151.08V100.133H480.987V183.333H466.507Z" fill="white"/>
<path d="M388.024 283.467L366.651 245.613L355.904 258.467V283.467H339.664V200.28H355.904V236.493L385.237 200.28H404.984L377.411 233.347L406.957 283.467H388.024Z" fill="white"/>
<path d="M369.091 137.053V149.907H384.397V153.067C384.397 157.387 383.344 161.133 380.664 164.16C377.984 167.08 374.011 168.84 369.104 168.84C364.664 168.84 361.037 167.2 358.704 164.52C355.584 161.053 354.757 157.107 354.731 141.56C354.757 126.32 355.597 122.507 358.704 119.067C361.037 116.387 364.664 114.627 369.104 114.627C377.397 114.627 382.184 118.947 384.064 126.773H400.397C398.184 112.747 388.357 100.133 369.091 100.133C359.744 100.133 352.504 103.4 346.651 109.24C338.531 117.36 338.464 127.36 338.477 140.973C338.477 140.987 338.477 141 338.477 141.013C338.477 155.387 338.237 165.787 346.651 174.2C352.491 180.04 359.971 183.307 369.091 183.307C377.971 183.307 385.917 180.733 392.571 173.84C398.411 167.76 400.517 160.52 400.517 148.48V142.093V140.96V137.027L369.091 137.053Z" fill="white"/>
<path d="M306.508 183.333V100.133H322.748V183.333H306.508Z" fill="white"/>
<path d="M241.827 83.1865L208.881 32.1332V83.1865H192.641V-0.000144958H207.134L240.081 50.9465V-0.000144958H256.321V83.1865H241.827Z" fill="white"/>
<path d="M288.449 158.786C288.449 151.426 286.463 145.346 282.023 141.146C278.516 137.88 273.729 135.773 266.129 134.72L256.316 133.32C252.929 132.853 250.236 131.573 248.609 130.053C246.943 128.506 246.249 126.426 246.169 124.426C246.343 118.893 250.503 114.333 258.863 114.28C264.223 114.32 270.303 115.133 275.383 120L285.663 109.84C278.529 102.946 270.236 100.146 258.796 100.146C258.636 100.146 258.489 100.16 258.329 100.16C258.329 100.16 252.423 100.16 247.103 102.12C247.036 102.146 246.983 102.173 246.916 102.2C236.849 105.786 230.876 113.88 230.503 124.346C230.503 124.453 230.489 124.573 230.489 124.68C230.489 131.693 232.476 137.066 236.449 141.04C240.196 144.666 245.449 146.88 252.569 147.933L262.609 149.333C266.463 149.92 268.329 150.733 269.969 152.253C271.649 153.813 272.449 156.146 272.516 158.906H272.529C272.369 165.2 267.476 168.68 258.476 168.84C250.969 168.76 244.036 166.986 238.903 161.84L228.383 172.36C236.356 180.453 245.676 183.2 257.849 183.333L259.023 183.293C275.436 182.813 288.009 174.013 288.449 158.826C288.449 158.826 288.449 158.826 288.449 158.786Z" fill="white"/>
<path d="M124.745 119.773C121.945 116.386 118.198 114.626 112.598 114.626H100.331V168.84H112.598C118.198 168.84 121.945 167.08 124.745 163.693C127.785 159.96 128.251 154 128.251 141.373C128.251 128.76 127.771 123.506 124.745 119.773ZM136.078 175.386C130.585 180.88 122.758 183.333 114.118 183.333H84.0781V100.133H114.105C122.745 100.133 130.585 102.586 136.065 108.08C145.411 117.426 144.478 128.88 144.478 141.386C144.491 153.88 145.425 166.04 136.078 175.386Z" fill="white"/>
<path d="M141.559 58.6535C141.559 51.2935 139.572 45.2135 135.132 41.0135C131.626 37.7335 126.839 35.6402 119.239 34.5869L109.426 33.1869C106.039 32.7202 103.346 31.4402 101.719 29.9202C100.052 28.3735 99.3588 26.2935 99.2788 24.2935C99.4522 18.7602 103.612 14.2002 111.972 14.1469C117.332 14.2002 123.412 15.0002 128.492 19.8669L138.772 9.70687C131.639 2.81354 123.346 0.0135498 111.906 0.0135498C111.746 0.0135498 111.599 0.0268631 111.439 0.0268631C111.439 0.0268631 105.532 0.0268555 100.212 1.98685C100.146 2.01352 100.092 2.0402 100.026 2.06686C89.9589 5.65353 83.9855 13.7469 83.6122 24.2135C83.6122 24.3202 83.5989 24.4402 83.5989 24.5469C83.5989 31.5602 85.5855 36.9335 89.5589 40.9069C93.2922 44.5335 98.5588 46.7469 105.679 47.8002L115.719 49.2002C119.572 49.7869 121.452 50.6002 123.079 52.1202C124.759 53.6802 125.559 56.0135 125.626 58.7735H125.639C125.479 65.0669 120.586 68.5469 111.586 68.7069C104.079 68.6269 97.1455 66.8535 92.0122 61.7069L81.4922 72.2269C89.4655 80.3202 98.7855 83.0669 110.959 83.2002L112.132 83.1602C128.546 82.6802 141.119 73.8669 141.559 58.6935C141.559 58.6935 141.559 58.6935 141.559 58.6535Z" fill="white"/>
<path d="M199.43 283.467V200.28H248.403V214.76H215.683V234.28H248.51V248.76H215.683V268.973H248.403V283.467H199.43Z" fill="white"/>
<path d="M163.998 283.467H150.438L135.131 233L119.825 283.467H106.278L84.0781 200.28H101.025L113.865 252.733L129.065 200.28H141.211L156.398 252.733L169.371 200.28H186.318L163.998 283.467Z" fill="white"/>
<path d="M611.75 14.4932H596.443V36.4665H611.75C618.883 36.4665 623.55 31.9065 623.55 25.4799C623.55 19.0399 618.883 14.4932 611.75 14.4932ZM624.363 83.1865L608.123 49.9999H596.443V83.1865H580.203V-0.000144958H612.803C629.75 -0.000144958 639.79 11.5599 639.79 25.4665C639.79 37.1465 632.656 44.3865 624.603 47.3199L643.176 83.1865H624.363Z" fill="white"/>
<path d="M543.457 64.2665C541.123 66.9465 537.497 68.7065 533.057 68.7065C528.617 68.7065 524.883 66.9465 522.537 64.2665C519.43 60.8132 518.59 56.9865 518.563 41.5065C518.59 26.1865 519.43 22.3732 522.537 18.9332C524.87 16.2532 528.617 14.4932 533.057 14.4932C537.497 14.4932 541.123 16.2532 543.457 18.9332C546.563 22.3865 547.523 26.1999 547.55 41.5998C547.523 56.9999 546.563 60.8132 543.457 64.2665ZM563.79 41.3999C563.79 41.2399 563.79 41.0799 563.79 40.9199C563.79 27.2665 563.63 17.2532 555.497 9.11983C549.657 3.27984 542.523 0.0131989 533.057 0.0131989C523.59 0.0131989 516.35 3.27984 510.51 9.11983C502.377 17.2532 502.323 27.2665 502.337 40.9199C502.337 55.2799 502.11 65.6665 510.51 74.0799C516.35 79.9198 523.603 83.1865 533.057 83.1865C542.523 83.1865 549.643 79.9198 555.497 74.0799C563.777 65.7999 563.79 55.5999 563.79 41.5998C563.79 41.5332 563.79 41.4665 563.79 41.3999Z" fill="white"/>
<path d="M380.011 24.5332L369.491 54.7999H390.171L380.011 24.5332ZM399.411 83.1865L394.504 68.4665H364.944L359.918 83.1865H342.984L373.238 -0.000144958H385.971L416.358 83.1865H399.411Z" fill="white"/>
<path d="M305.041 36.9205V49.7738H320.347V52.9338C320.347 57.2538 319.294 61.0005 316.614 64.0271C313.921 66.9471 309.961 68.7072 305.041 68.7072C300.601 68.7072 296.974 67.0672 294.641 64.3872C291.521 60.9205 290.694 56.9738 290.667 41.4271C290.694 26.1871 291.547 22.3738 294.641 18.9338C296.974 16.2538 300.601 14.4938 305.041 14.4938C313.334 14.4938 318.121 18.8138 320.001 26.6405H336.361C334.147 12.6138 324.321 0.000480652 305.054 0.000480652C295.707 0.000480652 288.467 3.26716 282.627 9.10715C274.507 17.2272 274.441 27.2272 274.454 40.8405C274.454 40.8538 274.454 40.8671 274.454 40.8805C274.454 55.2538 274.214 65.6538 282.627 74.0672C288.467 79.9072 295.947 83.1738 305.054 83.1738C313.934 83.1738 321.881 80.6005 328.534 73.7072C334.374 67.6272 336.481 60.3872 336.481 48.3471V41.9605V40.8271V36.8938L305.041 36.9205Z" fill="white"/>
</svg>
