<svg width="120" height="56" viewBox="0 0 120 56" fill="none" xmlns="http://www.w3.org/2000/svg">
<g clip-path="url(#clip0_628_67341)">
<path d="M63.7266 40.7575V37.5083H64.8315C65.0803 37.5083 65.2719 37.5248 65.4024 37.5537C65.5859 37.595 65.7449 37.6734 65.8713 37.7849C66.0425 37.9294 66.1689 38.1152 66.2505 38.3423C66.332 38.5693 66.3769 38.8253 66.3769 39.1143C66.3769 39.362 66.3483 39.5808 66.2912 39.7708C66.2342 39.9607 66.1608 40.1176 66.0711 40.2455C65.9814 40.3694 65.8835 40.4685 65.7775 40.5387C65.6715 40.6089 65.5451 40.6667 65.3942 40.6997C65.2434 40.7368 65.0721 40.7534 64.8764 40.7534H63.7266V40.7575ZM64.1506 40.3735H64.8356C65.0476 40.3735 65.2148 40.3529 65.3331 40.3157C65.4513 40.2744 65.5492 40.2208 65.6226 40.1465C65.7245 40.0432 65.802 39.907 65.859 39.7336C65.9161 39.5602 65.9447 39.3538 65.9447 39.1061C65.9447 38.7675 65.8917 38.5033 65.7775 38.3216C65.6633 38.14 65.5328 38.0161 65.3738 37.9542C65.2597 37.9088 65.0762 37.8881 64.8234 37.8881H64.1506V40.3735V40.3735Z" fill="white"/>
<path d="M68.506 39.9974L68.9137 40.0469C68.8485 40.2864 68.7302 40.4763 68.5549 40.6084C68.3796 40.7405 68.1594 40.8066 67.8903 40.8066C67.5519 40.8066 67.2787 40.6993 67.0789 40.4887C66.8791 40.2781 66.7812 39.9809 66.7812 39.5969C66.7812 39.2006 66.8832 38.8951 67.083 38.6763C67.2828 38.4574 67.5437 38.3501 67.8658 38.3501C68.1757 38.3501 68.4326 38.4574 68.6283 38.6721C68.824 38.8868 68.926 39.1882 68.926 39.5763C68.926 39.6011 68.926 39.6341 68.926 39.6836H67.1931C67.2094 39.9437 67.2787 40.1419 67.4092 40.2781C67.5396 40.4144 67.7027 40.4846 67.8944 40.4846C68.0371 40.4846 68.1635 40.4474 68.2654 40.369C68.3674 40.2905 68.4489 40.1667 68.506 39.9974ZM67.2135 39.3533H68.5141C68.4978 39.1552 68.4448 39.0065 68.3633 38.9075C68.2369 38.7547 68.0738 38.6763 67.874 38.6763C67.6946 38.6763 67.5396 38.7382 67.4173 38.862C67.295 38.9818 67.2257 39.1469 67.2135 39.3533Z" fill="white"/>
<path d="M69.25 40.0554L69.6414 39.9935C69.6618 40.1504 69.723 40.2742 69.8249 40.3568C69.9268 40.4435 70.0655 40.4848 70.2449 40.4848C70.4243 40.4848 70.5588 40.4476 70.6485 40.3733C70.7382 40.299 70.779 40.2123 70.779 40.1091C70.779 40.0183 70.7423 39.9481 70.6608 39.8944C70.6078 39.8573 70.4732 39.816 70.2571 39.7582C69.9676 39.6839 69.7678 39.6219 69.6577 39.5682C69.5477 39.5146 69.462 39.4403 69.4049 39.3453C69.3479 39.2504 69.3193 39.143 69.3193 39.0274C69.3193 38.9242 69.3438 38.8251 69.3886 38.7343C69.4335 38.6434 69.5028 38.5691 69.5843 38.5113C69.6455 38.4659 69.7311 38.4246 69.8371 38.3957C69.9432 38.3668 70.0573 38.3462 70.1756 38.3462C70.359 38.3462 70.5181 38.371 70.6567 38.4246C70.7953 38.4783 70.8973 38.5485 70.9625 38.6393C71.0277 38.7301 71.0726 38.8499 71.0971 39.0026L70.7097 39.0563C70.6934 38.9366 70.6404 38.8416 70.5588 38.7714C70.4773 38.7013 70.355 38.6682 70.2041 38.6682C70.0247 38.6682 69.8942 38.6971 69.8168 38.759C69.7393 38.821 69.6985 38.8912 69.6985 38.9737C69.6985 39.0274 69.7148 39.0728 69.7474 39.1141C69.7801 39.1554 69.829 39.1926 69.8983 39.2215C69.9391 39.238 70.0532 39.271 70.2449 39.3247C70.5222 39.399 70.7179 39.4609 70.828 39.5104C70.938 39.56 71.0237 39.6302 71.0889 39.721C71.1541 39.8118 71.1827 39.9274 71.1827 40.0637C71.1827 40.1958 71.146 40.3238 71.0685 40.4394C70.991 40.5591 70.881 40.6458 70.7382 40.7119C70.5915 40.7779 70.4284 40.8068 70.249 40.8068C69.9472 40.8068 69.7148 40.7449 69.5558 40.6169C69.3968 40.4889 69.2949 40.3031 69.25 40.0554Z" fill="white"/>
<path d="M71.6562 37.9661V37.5078H72.0518V37.9661H71.6562ZM71.6562 40.757V38.4037H72.0518V40.757H71.6562Z" fill="white"/>
<path d="M72.5775 40.9511L72.9607 41.0089C72.9771 41.1286 73.0219 41.2153 73.0953 41.269C73.1932 41.3433 73.3277 41.3804 73.4949 41.3804C73.6784 41.3804 73.817 41.3433 73.9189 41.269C74.0209 41.1946 74.0861 41.0914 74.1187 40.9593C74.1391 40.8767 74.1473 40.7075 74.1473 40.4474C73.976 40.6538 73.7599 40.757 73.503 40.757C73.1809 40.757 72.9363 40.6414 72.761 40.4061C72.5856 40.1708 72.5 39.8941 72.5 39.5639C72.5 39.3409 72.5408 39.1304 72.6223 38.9404C72.7039 38.7505 72.818 38.6019 72.973 38.4987C73.1279 38.3955 73.3033 38.3418 73.5112 38.3418C73.7844 38.3418 74.0127 38.4533 74.1921 38.6803V38.3955H74.555V40.4309C74.555 40.7983 74.5183 41.0584 74.4449 41.2112C74.3715 41.3639 74.2533 41.4836 74.0943 41.5745C73.9352 41.6612 73.7395 41.7066 73.503 41.7066C73.2258 41.7066 73.0015 41.6447 72.8303 41.5167C72.6549 41.3969 72.5734 41.207 72.5775 40.9511ZM72.9037 39.5391C72.9037 39.8487 72.9648 40.0717 73.0871 40.2162C73.2095 40.3607 73.3603 40.4309 73.5438 40.4309C73.7232 40.4309 73.8782 40.3607 74.0005 40.2203C74.1228 40.0799 74.184 39.857 74.184 39.5556C74.184 39.2666 74.1187 39.0519 73.9964 38.9033C73.8741 38.7547 73.7191 38.6845 73.5397 38.6845C73.3644 38.6845 73.2176 38.7547 73.0912 38.8992C72.9648 39.0395 72.9037 39.2542 72.9037 39.5391Z" fill="white"/>
<path d="M75.1406 40.7571V38.4038H75.4954V38.7382C75.6666 38.4781 75.9113 38.3501 76.2334 38.3501C76.372 38.3501 76.5025 38.3749 76.6207 38.4285C76.739 38.4781 76.8246 38.5483 76.8858 38.6308C76.9428 38.7134 76.9836 38.8125 77.0081 38.924C77.0244 38.9983 77.0285 39.1263 77.0285 39.3121V40.7612H76.633V39.3286C76.633 39.1676 76.6166 39.0437 76.5881 38.9653C76.5555 38.8827 76.5025 38.8208 76.425 38.7712C76.3475 38.7217 76.2538 38.701 76.1518 38.701C75.9846 38.701 75.8379 38.7547 75.7155 38.862C75.5932 38.9694 75.5321 39.1758 75.5321 39.4772V40.7653H75.1406V40.7571Z" fill="white"/>
<path d="M79.1592 40.4681C79.0124 40.5919 78.8737 40.6827 78.7392 40.7323C78.6046 40.7818 78.4579 40.8107 78.3029 40.8107C78.046 40.8107 77.8503 40.7488 77.7117 40.6208C77.5731 40.4928 77.5078 40.3318 77.5078 40.1378C77.5078 40.0222 77.5323 39.919 77.5853 39.8199C77.6383 39.7249 77.7035 39.6465 77.7892 39.5887C77.8748 39.5309 77.9686 39.4855 78.0746 39.4566C78.152 39.4359 78.2703 39.4153 78.4252 39.3988C78.7433 39.3616 78.9798 39.3162 79.1265 39.2625C79.1265 39.2088 79.1265 39.1717 79.1265 39.1593C79.1265 38.9983 79.0898 38.8827 79.0165 38.8166C78.9145 38.7258 78.7677 38.6804 78.5679 38.6804C78.3804 38.6804 78.2458 38.7134 78.1561 38.7795C78.0664 38.8455 78.0012 38.9611 77.9604 39.1304L77.5731 39.0767C77.6097 38.9075 77.6668 38.7753 77.7443 38.6721C77.8218 38.5689 77.94 38.4905 78.0909 38.4327C78.2417 38.379 78.4171 38.3501 78.6169 38.3501C78.8167 38.3501 78.9757 38.3749 79.1021 38.4203C79.2244 38.4657 79.3182 38.5276 79.3753 38.5978C79.4323 38.668 79.4731 38.7588 79.4976 38.8703C79.5098 38.9364 79.518 39.0602 79.518 39.2377V39.7703C79.518 40.1419 79.5261 40.3772 79.5424 40.4763C79.5587 40.5754 79.5914 40.6704 79.6403 40.7571H79.2285C79.1959 40.6745 79.1714 40.5754 79.1592 40.4681ZM79.1265 39.5763C78.9838 39.6341 78.7677 39.6878 78.4823 39.729C78.3192 39.7538 78.205 39.7786 78.1398 39.8075C78.0705 39.8364 78.0216 39.8818 77.9849 39.9355C77.9482 39.9933 77.9319 40.0552 77.9319 40.1254C77.9319 40.2327 77.9726 40.3194 78.0501 40.3896C78.1276 40.4598 78.2458 40.497 78.4008 40.497C78.5516 40.497 78.6862 40.4639 78.8044 40.3979C78.9227 40.3318 79.0083 40.2369 79.0654 40.1213C79.1062 40.0304 79.1306 39.8983 79.1306 39.7208V39.5763H79.1265Z" fill="white"/>
<path d="M80.9868 40.3979L81.0438 40.7489C80.9338 40.7736 80.8318 40.786 80.7462 40.786C80.6035 40.786 80.4934 40.7613 80.4118 40.7158C80.3344 40.6704 80.2773 40.6085 80.2447 40.5342C80.2121 40.4599 80.1957 40.303 80.1957 40.0635V38.7094H79.9062V38.3997H80.1957V37.8176L80.5872 37.5781V38.3997H80.9827V38.7094H80.5872V40.0842C80.5872 40.1998 80.5953 40.27 80.6076 40.303C80.6198 40.336 80.6443 40.3608 80.6769 40.3814C80.7095 40.4021 80.7544 40.4103 80.8114 40.4103C80.8604 40.4145 80.9174 40.4103 80.9868 40.3979Z" fill="white"/>
<path d="M82.9669 39.9974L83.3747 40.0469C83.3094 40.2864 83.1912 40.4763 83.0159 40.6084C82.8405 40.7405 82.6203 40.8066 82.3512 40.8066C82.0128 40.8066 81.7396 40.6993 81.5398 40.4887C81.34 40.2781 81.2422 39.9809 81.2422 39.5969C81.2422 39.2006 81.3441 38.8951 81.5439 38.6763C81.7437 38.4574 82.0047 38.3501 82.3268 38.3501C82.6367 38.3501 82.8935 38.4574 83.0893 38.6721C83.285 38.8868 83.3869 39.1882 83.3869 39.5763C83.3869 39.6011 83.3869 39.6341 83.3869 39.6836H81.654C81.6703 39.9437 81.7396 40.1419 81.8701 40.2781C82.0006 40.4144 82.1637 40.4846 82.3553 40.4846C82.498 40.4846 82.6244 40.4474 82.7264 40.369C82.8283 40.2905 82.9098 40.1667 82.9669 39.9974ZM81.6744 39.3533H82.9751C82.9588 39.1552 82.9058 39.0065 82.8242 38.9075C82.6978 38.7547 82.5347 38.6763 82.3349 38.6763C82.1555 38.6763 82.0006 38.7382 81.8783 38.862C81.7559 38.9818 81.6866 39.1469 81.6744 39.3533Z" fill="white"/>
<path d="M85.3779 40.7572V40.46C85.2311 40.6953 85.015 40.8109 84.7255 40.8109C84.542 40.8109 84.3708 40.7614 84.2158 40.654C84.0609 40.5508 83.9386 40.4063 83.853 40.2205C83.7673 40.0347 83.7266 39.82 83.7266 39.5806C83.7266 39.3453 83.7633 39.1306 83.8407 38.9407C83.9182 38.7507 84.0324 38.6021 84.1873 38.4989C84.3423 38.3957 84.5135 38.3461 84.7051 38.3461C84.8438 38.3461 84.9702 38.375 85.0803 38.437C85.1904 38.4948 85.2801 38.5732 85.3494 38.6723V37.5039H85.7408V40.7531H85.3779V40.7572ZM84.1302 39.5806C84.1302 39.882 84.1914 40.109 84.3178 40.2577C84.4442 40.4063 84.591 40.4806 84.7622 40.4806C84.9335 40.4806 85.0803 40.4104 85.2026 40.2659C85.3208 40.1214 85.382 39.9067 85.382 39.6136C85.382 39.2916 85.3208 39.0563 85.1985 38.9035C85.0762 38.7507 84.9253 38.6764 84.7459 38.6764C84.5706 38.6764 84.4238 38.7507 84.3056 38.8952C84.1914 39.0397 84.1302 39.2709 84.1302 39.5806Z" fill="white"/>
<path d="M65.8342 42.4624H66.2583V44.3409C66.2583 44.6671 66.2216 44.9272 66.1482 45.1171C66.0748 45.307 65.9443 45.4639 65.7527 45.5877C65.561 45.7075 65.3123 45.7694 65.0024 45.7694C64.7007 45.7694 64.4561 45.7157 64.2644 45.6125C64.0728 45.5093 63.9382 45.3565 63.8567 45.1584C63.7751 44.9602 63.7344 44.6877 63.7344 44.345V42.4665H64.1584V44.3409C64.1584 44.6216 64.1829 44.8322 64.2359 44.9643C64.2889 45.0964 64.3786 45.1997 64.505 45.274C64.6314 45.3442 64.7863 45.3813 64.9698 45.3813C65.2838 45.3813 65.504 45.3111 65.6385 45.1666C65.7731 45.0221 65.8383 44.7455 65.8383 44.3409V42.4624H65.8342Z" fill="white"/>
<path d="M66.9609 45.7116V42.4624H67.3972L69.0853 45.0139V42.4624H69.493V45.7116H69.0567L67.3687 43.156V45.7116H66.9609Z" fill="white"/>
<path d="M70.2109 45.7116V42.4624H72.531V42.8464H70.635V43.8413H72.4127V44.2212H70.635V45.3276H72.6044V45.7116H70.2109V45.7116Z" fill="white"/>
<path d="M73.0547 44.667L73.4543 44.6298C73.4747 44.7908 73.5195 44.9271 73.5888 45.0303C73.6581 45.1335 73.7642 45.2202 73.9109 45.2821C74.0577 45.3482 74.2208 45.3771 74.4043 45.3771C74.5674 45.3771 74.7101 45.3523 74.8324 45.3028C74.9548 45.2532 75.0485 45.1872 75.1097 45.1005C75.1709 45.0138 75.1994 44.923 75.1994 44.8239C75.1994 44.7207 75.1709 44.634 75.1138 44.5555C75.0567 44.4771 74.9588 44.4151 74.8243 44.3656C74.7387 44.3326 74.547 44.2789 74.2534 44.2087C73.9599 44.1385 73.7519 44.0683 73.6337 44.0064C73.4787 43.9238 73.3646 43.8248 73.2912 43.705C73.2178 43.5853 73.177 43.449 73.177 43.3004C73.177 43.1353 73.2219 42.9825 73.3156 42.838C73.4094 42.6935 73.544 42.5862 73.7193 42.5119C73.8946 42.4375 74.0944 42.4004 74.3105 42.4004C74.547 42.4004 74.759 42.4376 74.9385 42.516C75.1219 42.5944 75.2606 42.7059 75.3584 42.8587C75.4563 43.0114 75.5093 43.1807 75.5174 43.3706L75.1097 43.4036C75.0893 43.1972 75.0118 43.0444 74.8854 42.9371C74.759 42.8339 74.5715 42.7802 74.3268 42.7802C74.07 42.7802 73.8824 42.8298 73.7642 42.9247C73.6459 43.0197 73.5888 43.1353 73.5888 43.2674C73.5888 43.383 73.6296 43.4821 73.7152 43.5564C73.7968 43.6307 74.0088 43.7091 74.3554 43.7876C74.702 43.866 74.9385 43.9362 75.0648 43.994C75.2524 44.0807 75.391 44.1922 75.4767 44.3243C75.5623 44.4564 75.6112 44.6133 75.6112 44.7867C75.6112 44.9601 75.5623 45.1211 75.4644 45.2739C75.3666 45.4266 75.2279 45.5464 75.0445 45.6289C74.861 45.7115 74.653 45.7569 74.4247 45.7569C74.1352 45.7569 73.8906 45.7156 73.6948 45.6289C73.4991 45.5422 73.3442 45.4143 73.2341 45.2409C73.1199 45.0798 73.0588 44.8858 73.0547 44.667Z" fill="white"/>
<path d="M78.4763 44.5718L78.9004 44.6791C78.8107 45.0342 78.6516 45.3026 78.4192 45.4883C78.1868 45.6741 77.9055 45.765 77.5711 45.765C77.2246 45.765 76.9432 45.6948 76.7271 45.5503C76.511 45.4058 76.3438 45.1993 76.2338 44.931C76.1196 44.6585 76.0625 44.3695 76.0625 44.0599C76.0625 43.7213 76.1277 43.4241 76.2541 43.1722C76.3805 42.9204 76.564 42.7305 76.8005 42.5983C77.037 42.4662 77.2939 42.4043 77.5793 42.4043C77.9014 42.4043 78.1705 42.4869 78.3907 42.652C78.6109 42.8172 78.7617 43.0484 78.8474 43.3497L78.4274 43.4488C78.354 43.2135 78.2439 43.0401 78.1053 42.9328C77.9667 42.8254 77.7872 42.7717 77.5711 42.7717C77.3224 42.7717 77.1186 42.8337 76.9514 42.9534C76.7842 43.0731 76.67 43.2341 76.6007 43.4364C76.5314 43.6387 76.4988 43.8452 76.4988 44.0599C76.4988 44.3365 76.5396 44.5759 76.617 44.7824C76.6986 44.9888 76.8209 45.1415 76.9881 45.2448C77.1552 45.348 77.3387 45.3975 77.5344 45.3975C77.7709 45.3975 77.9748 45.3273 78.1379 45.1911C78.3051 45.0507 78.4192 44.8443 78.4763 44.5718Z" fill="white"/>
<path d="M79.2969 44.13C79.2969 43.5892 79.4396 43.1681 79.725 42.8626C80.0104 42.5571 80.3815 42.4043 80.8341 42.4043C81.1317 42.4043 81.3967 42.4745 81.6332 42.619C81.8697 42.7635 82.0532 42.9617 82.1755 43.2176C82.3019 43.4736 82.3631 43.7667 82.3631 44.0888C82.3631 44.419 82.2978 44.7122 82.1674 44.9723C82.0369 45.2324 81.8493 45.4305 81.6088 45.5627C81.3682 45.6948 81.1072 45.765 80.83 45.765C80.5282 45.765 80.2591 45.6906 80.0186 45.542C79.7821 45.3934 79.5986 45.1911 79.4763 44.9351C79.354 44.6791 79.2969 44.4149 79.2969 44.13ZM79.7332 44.1342C79.7332 44.5264 79.8392 44.836 80.0471 45.059C80.2551 45.286 80.516 45.3975 80.83 45.3975C81.1521 45.3975 81.413 45.2819 81.621 45.0548C81.8289 44.8278 81.9309 44.5057 81.9309 44.0846C81.9309 43.8204 81.886 43.5892 81.7963 43.391C81.7066 43.1929 81.5802 43.0401 81.409 42.9328C81.2377 42.8254 81.0502 42.7676 80.8381 42.7676C80.5364 42.7676 80.2795 42.8708 80.0634 43.0814C79.8432 43.2961 79.7332 43.647 79.7332 44.1342Z" fill="white"/>
<path d="M86.4529 44.5718L86.8769 44.6791C86.7872 45.0342 86.6282 45.3026 86.3958 45.4883C86.1634 45.6741 85.882 45.765 85.5477 45.765C85.2011 45.765 84.9198 45.6948 84.7037 45.5503C84.4876 45.4058 84.3204 45.1993 84.2103 44.931C84.0961 44.6585 84.0391 44.3695 84.0391 44.0599C84.0391 43.7213 84.1043 43.4241 84.2307 43.1722C84.3571 42.9204 84.5406 42.7305 84.7771 42.5983C85.0136 42.4662 85.2704 42.4043 85.5559 42.4043C85.878 42.4043 86.1471 42.4869 86.3673 42.652C86.5874 42.8172 86.7383 43.0484 86.8239 43.3497L86.404 43.4488C86.3306 43.2135 86.2205 43.0401 86.0818 42.9328C85.9432 42.8254 85.7638 42.7717 85.5477 42.7717C85.299 42.7717 85.0951 42.8337 84.9279 42.9534C84.7608 43.0731 84.6466 43.2341 84.5773 43.4364C84.508 43.6387 84.4753 43.8452 84.4753 44.0599C84.4753 44.3365 84.5161 44.5759 84.5936 44.7824C84.6751 44.9888 84.7975 45.1415 84.9646 45.2448C85.1318 45.348 85.3153 45.3975 85.511 45.3975C85.7475 45.3975 85.9514 45.3273 86.1145 45.1911C86.2857 45.0507 86.3958 44.8443 86.4529 44.5718Z" fill="white"/>
<path d="M87.3438 45.7116V43.3584H87.6985V43.7134C87.7882 43.5483 87.8738 43.4368 87.9513 43.3831C88.0288 43.3295 88.1103 43.3047 88.2041 43.3047C88.3386 43.3047 88.4732 43.346 88.6077 43.4327L88.4732 43.8042C88.3753 43.7464 88.2816 43.7175 88.1837 43.7175C88.0981 43.7175 88.0206 43.7423 87.9513 43.796C87.882 43.8497 87.833 43.9198 87.8045 44.0148C87.7596 44.1552 87.7393 44.3121 87.7393 44.4813V45.7158H87.3438V45.7116Z" fill="white"/>
<path d="M90.4357 44.952L90.8434 45.0015C90.7782 45.241 90.6599 45.4309 90.4846 45.563C90.3093 45.6951 90.0891 45.7612 89.82 45.7612C89.4816 45.7612 89.2084 45.6538 89.0086 45.4433C88.8088 45.2327 88.7109 44.9355 88.7109 44.5515C88.7109 44.1552 88.8129 43.8497 89.0127 43.6308C89.2125 43.412 89.4734 43.3047 89.7955 43.3047C90.1054 43.3047 90.3623 43.412 90.558 43.6267C90.7537 43.8414 90.8556 44.1428 90.8556 44.5309C90.8556 44.5556 90.8556 44.5887 90.8556 44.6382H89.1228C89.1391 44.8983 89.2084 45.0965 89.3389 45.2327C89.4693 45.369 89.6324 45.4392 89.8241 45.4392C89.9668 45.4392 90.0932 45.402 90.1951 45.3236C90.297 45.2451 90.3786 45.1213 90.4357 44.952ZM89.1431 44.3079H90.4438C90.4275 44.1098 90.3745 43.9611 90.293 43.862C90.1666 43.7093 90.0035 43.6308 89.8037 43.6308C89.6243 43.6308 89.4693 43.6928 89.347 43.8166C89.2247 43.9405 89.1554 44.1015 89.1431 44.3079Z" fill="white"/>
<path d="M92.8545 45.4226C92.7077 45.5465 92.5691 45.6373 92.4345 45.6869C92.2999 45.7364 92.1532 45.7653 91.9982 45.7653C91.7413 45.7653 91.5456 45.7034 91.407 45.5754C91.2684 45.4474 91.2031 45.2864 91.2031 45.0924C91.2031 44.9768 91.2276 44.8735 91.2806 44.7745C91.3336 44.6795 91.3988 44.6011 91.4845 44.5433C91.5701 44.4855 91.6639 44.44 91.7699 44.4111C91.8474 44.3905 91.9656 44.3699 92.1205 44.3533C92.4386 44.3162 92.6751 44.2708 92.8219 44.2171C92.8219 44.1634 92.8219 44.1263 92.8219 44.1139C92.8219 43.9529 92.7852 43.8373 92.7118 43.7712C92.6098 43.6804 92.463 43.635 92.2633 43.635C92.0757 43.635 91.9411 43.668 91.8514 43.7341C91.7617 43.8001 91.6965 43.9157 91.6557 44.085L91.2684 44.0313C91.3051 43.862 91.3621 43.7299 91.4396 43.6267C91.5171 43.5235 91.6353 43.4451 91.7862 43.3873C91.9371 43.3336 92.1124 43.3047 92.3122 43.3047C92.512 43.3047 92.671 43.3295 92.7974 43.3749C92.9197 43.4203 93.0135 43.4822 93.0706 43.5524C93.1277 43.6226 93.1684 43.7134 93.1929 43.8249C93.2051 43.8909 93.2133 44.0148 93.2133 44.1923V44.7249C93.2133 45.0965 93.2214 45.3318 93.2378 45.4309C93.2541 45.53 93.2867 45.6249 93.3356 45.7116H92.9238C92.8912 45.6291 92.8667 45.53 92.8545 45.4226ZM92.8219 44.5309C92.6791 44.5887 92.463 44.6423 92.1776 44.6836C92.0145 44.7084 91.9004 44.7332 91.8351 44.7621C91.7658 44.791 91.7169 44.8364 91.6802 44.8901C91.6435 44.9479 91.6272 45.0098 91.6272 45.08C91.6272 45.1873 91.6679 45.274 91.7454 45.3442C91.8229 45.4144 91.9411 45.4515 92.0961 45.4515C92.2469 45.4515 92.3815 45.4185 92.4997 45.3525C92.618 45.2864 92.7036 45.1914 92.7607 45.0758C92.8015 44.985 92.8259 44.8529 92.8259 44.6754V44.5309H92.8219Z" fill="white"/>
<path d="M94.6977 45.3564L94.7548 45.7074C94.6447 45.7321 94.5428 45.7445 94.4571 45.7445C94.3144 45.7445 94.2043 45.7198 94.1228 45.6743C94.0453 45.6289 93.9882 45.567 93.9556 45.4927C93.923 45.4184 93.9067 45.2615 93.9067 45.022V43.6678H93.6172V43.3582H93.9067V42.7761L94.2981 42.5366V43.3582H94.6936V43.6678H94.2981V45.0427C94.2981 45.1583 94.3063 45.2285 94.3185 45.2615C94.3307 45.2945 94.3552 45.3193 94.3878 45.3399C94.4204 45.3606 94.4653 45.3688 94.5224 45.3688C94.5672 45.3688 94.6243 45.3647 94.6977 45.3564Z" fill="white"/>
<path d="M95.0781 42.9207V42.4624H95.4736V42.9207H95.0781ZM95.0781 45.7116V43.3583H95.4736V45.7116H95.0781Z" fill="white"/>
<path d="M96.7207 45.7117L95.8359 43.3584H96.2518L96.7493 44.7704C96.8023 44.9231 96.8512 45.08 96.9001 45.2452C96.9368 45.1213 96.9858 44.9727 97.0469 44.7993L97.5648 43.3625H97.9684L97.0877 45.7158H96.7207V45.7117Z" fill="white"/>
<path d="M99.9122 44.952L100.32 45.0015C100.255 45.241 100.137 45.4309 99.9612 45.563C99.7858 45.6951 99.5657 45.7612 99.2966 45.7612C98.9581 45.7612 98.6849 45.6538 98.4852 45.4433C98.2854 45.2327 98.1875 44.9355 98.1875 44.5515C98.1875 44.1552 98.2894 43.8497 98.4892 43.6308C98.689 43.412 98.95 43.3047 99.2721 43.3047C99.582 43.3047 99.8388 43.412 100.035 43.6267C100.23 43.8414 100.332 44.1428 100.332 44.5309C100.332 44.5556 100.332 44.5887 100.332 44.6382H98.5993C98.6156 44.8983 98.6849 45.0965 98.8154 45.2327C98.9459 45.369 99.109 45.4392 99.3006 45.4392C99.4433 45.4392 99.5697 45.402 99.6717 45.3236C99.7695 45.2451 99.8511 45.1213 99.9122 44.952ZM98.6197 44.3079H99.9204C99.9041 44.1098 99.8511 43.9611 99.7695 43.862C99.6431 43.7093 99.48 43.6308 99.2802 43.6308C99.1008 43.6308 98.9459 43.6928 98.8236 43.8166C98.7013 43.9405 98.6319 44.1015 98.6197 44.3079Z" fill="white"/>
<path d="M104.398 44.5718L104.822 44.6791C104.733 45.0342 104.574 45.3026 104.341 45.4883C104.109 45.6741 103.827 45.765 103.493 45.765C103.146 45.765 102.865 45.6948 102.649 45.5503C102.433 45.4058 102.266 45.1993 102.156 44.931C102.041 44.6585 101.984 44.3695 101.984 44.0599C101.984 43.7213 102.05 43.4241 102.176 43.1722C102.302 42.9204 102.486 42.7305 102.722 42.5983C102.959 42.4662 103.216 42.4043 103.501 42.4043C103.823 42.4043 104.092 42.4869 104.313 42.652C104.533 42.8172 104.684 43.0484 104.769 43.3497L104.349 43.4488C104.276 43.2135 104.166 43.0401 104.027 42.9328C103.889 42.8254 103.709 42.7717 103.493 42.7717C103.244 42.7717 103.04 42.8337 102.873 42.9534C102.706 43.0731 102.592 43.2341 102.523 43.4364C102.453 43.6387 102.421 43.8452 102.421 44.0599C102.421 44.3365 102.461 44.5759 102.539 44.7824C102.62 44.9888 102.743 45.1415 102.91 45.2448C103.077 45.348 103.261 45.3975 103.456 45.3975C103.693 45.3975 103.897 45.3273 104.06 45.1911C104.227 45.0507 104.341 44.8443 104.398 44.5718Z" fill="white"/>
<path d="M105.297 42.9207V42.4624H105.692V42.9207H105.297ZM105.297 45.7116V43.3583H105.692V45.7116H105.297Z" fill="white"/>
<path d="M107.151 45.3564L107.208 45.7074C107.098 45.7321 106.996 45.7445 106.91 45.7445C106.768 45.7445 106.657 45.7198 106.576 45.6743C106.498 45.6289 106.441 45.567 106.409 45.4927C106.376 45.4184 106.36 45.2615 106.36 45.022V43.6678H106.07V43.3582H106.36V42.7761L106.751 42.5366V43.3582H107.147V43.6678H106.751V45.0427C106.751 45.1583 106.759 45.2285 106.772 45.2615C106.784 45.2945 106.808 45.3193 106.841 45.3399C106.874 45.3606 106.918 45.3688 106.975 45.3688C107.02 45.3688 107.077 45.3647 107.151 45.3564Z" fill="white"/>
<path d="M107.524 46.6197L107.479 46.244C107.565 46.2688 107.642 46.2812 107.704 46.2812C107.789 46.2812 107.863 46.2646 107.916 46.2357C107.969 46.2068 108.009 46.1656 108.046 46.1119C108.071 46.0706 108.111 45.9715 108.164 45.8146C108.172 45.794 108.185 45.761 108.201 45.7155L107.32 43.3581H107.744L108.23 44.7206C108.291 44.894 108.348 45.0756 108.397 45.2655C108.442 45.0839 108.495 44.9022 108.56 44.7288L109.057 43.354H109.453L108.568 45.7486C108.474 46.0087 108.401 46.1862 108.348 46.2812C108.279 46.4133 108.197 46.5082 108.107 46.5702C108.018 46.6321 107.907 46.661 107.785 46.661C107.704 46.6651 107.618 46.6527 107.524 46.6197Z" fill="white"/>
<path d="M63.6719 47.8748V47.4165H64.0674V47.8748H63.6719ZM63.6719 50.6657V48.3124H64.0674V50.6657H63.6719Z" fill="white"/>
<path d="M64.6641 50.6657V48.3125H65.0188V48.6469C65.1901 48.3868 65.4347 48.2588 65.7568 48.2588C65.8954 48.2588 66.0259 48.2836 66.1442 48.3372C66.2624 48.3868 66.348 48.457 66.4092 48.5395C66.4663 48.6221 66.507 48.7212 66.5315 48.8327C66.5478 48.907 66.5519 49.035 66.5519 49.2207V50.6699H66.1564V49.2373C66.1564 49.0762 66.1401 48.9524 66.1115 48.8739C66.0789 48.7914 66.0259 48.7294 65.9484 48.6799C65.871 48.6304 65.7772 48.6097 65.6753 48.6097C65.5081 48.6097 65.3613 48.6634 65.239 48.7707C65.1167 48.8781 65.0555 49.0845 65.0555 49.3859V50.674H64.6641V50.6657Z" fill="white"/>
<path d="M70.3709 50.2817V50.6656H68.2506C68.2465 50.5707 68.2628 50.4757 68.2955 50.389C68.3485 50.2445 68.4341 50.1 68.5564 49.9555C68.6787 49.811 68.8459 49.65 69.0743 49.4642C69.4249 49.1752 69.6573 48.944 69.7796 48.7748C69.902 48.6055 69.9631 48.4445 69.9631 48.2958C69.9631 48.139 69.906 48.0027 69.796 47.8954C69.6859 47.788 69.5391 47.7344 69.3597 47.7344C69.168 47.7344 69.0172 47.7922 68.903 47.9078C68.7888 48.0234 68.7318 48.1844 68.7318 48.3867L68.3281 48.3454C68.3566 48.0399 68.4586 47.8045 68.642 47.6477C68.8215 47.4866 69.0661 47.4082 69.3719 47.4082C69.6818 47.4082 69.9224 47.4949 70.1018 47.6683C70.2812 47.8417 70.3709 48.0564 70.3709 48.3124C70.3709 48.4445 70.3464 48.5683 70.2934 48.6963C70.2404 48.8243 70.1548 48.9523 70.0324 49.0927C69.9101 49.233 69.7063 49.4229 69.4249 49.6665C69.1884 49.8688 69.0376 50.0051 68.9682 50.0753C68.8989 50.1454 68.8459 50.2198 68.8011 50.2899H70.3709V50.2817Z" fill="white"/>
<path d="M70.7891 49.064C70.7891 48.68 70.8298 48.3704 70.9073 48.1351C70.9848 47.8997 71.103 47.7181 71.2539 47.5942C71.4047 47.4704 71.6005 47.4043 71.837 47.4043C72.0082 47.4043 72.1591 47.4373 72.2895 47.5075C72.42 47.5777 72.526 47.6809 72.6117 47.813C72.6973 47.9451 72.7625 48.1062 72.8115 48.2961C72.8604 48.486 72.8848 48.742 72.8848 49.064C72.8848 49.4438 72.8441 49.7535 72.7666 49.9888C72.6891 50.2241 72.575 50.4058 72.42 50.5338C72.2651 50.6617 72.0734 50.7237 71.837 50.7237C71.5271 50.7237 71.2865 50.6122 71.1071 50.3851C70.8951 50.1126 70.7891 49.675 70.7891 49.064ZM71.1968 49.064C71.1968 49.5966 71.258 49.9516 71.3803 50.1292C71.5026 50.3067 71.6576 50.3934 71.837 50.3934C72.0164 50.3934 72.1713 50.3067 72.2936 50.1292C72.4159 49.9516 72.4771 49.5966 72.4771 49.064C72.4771 48.5273 72.4159 48.1722 72.2936 47.9988C72.1713 47.8254 72.0164 47.7346 71.8329 47.7346C71.6535 47.7346 71.5067 47.813 71.4007 47.9658C71.262 48.164 71.1968 48.5314 71.1968 49.064Z" fill="white"/>
<path d="M74.7725 50.6656H74.377V48.1224C74.2832 48.2133 74.1568 48.3041 74.0018 48.3991C73.8469 48.4899 73.7083 48.5601 73.5859 48.6055V48.2215C73.8061 48.1183 73.9978 47.9903 74.1649 47.8417C74.3321 47.6931 74.4463 47.5486 74.5156 47.4082H74.7684V50.6656H74.7725Z" fill="white"/>
<path d="M75.7812 49.8152L76.1931 49.778C76.2257 49.9803 76.295 50.1372 76.4051 50.2363C76.5152 50.3395 76.6497 50.389 76.8088 50.389C77.0004 50.389 77.1594 50.3147 77.2899 50.1702C77.4204 50.0257 77.4856 49.8317 77.4856 49.5922C77.4856 49.3651 77.4204 49.1835 77.298 49.0555C77.1757 48.9275 77.0085 48.8573 76.8006 48.8573C76.6742 48.8573 76.56 48.8862 76.4581 48.944C76.3562 49.0018 76.2746 49.0761 76.2175 49.1711L75.8465 49.1216L76.1564 47.4536H77.7547V47.8334H76.4744L76.3032 48.7087C76.4948 48.5725 76.6987 48.5064 76.9107 48.5064C77.192 48.5064 77.4285 48.6055 77.6202 48.7995C77.8118 48.9977 77.9097 49.2495 77.9097 49.5592C77.9097 49.8523 77.824 50.1083 77.6569 50.323C77.4489 50.5872 77.1716 50.7193 76.8128 50.7193C76.5193 50.7193 76.2828 50.6367 76.0993 50.4716C75.9117 50.3065 75.8057 50.0876 75.7812 49.8152Z" fill="white"/>
<path d="M80.5402 17.2328L75.7493 13.707H69.8248L65.0339 17.2328L63.2031 22.9385L65.0339 28.6442L69.8248 32.17H75.7493L80.5402 28.6442L82.371 22.9385L80.5402 17.2328ZM75.5577 26.7987H70.0165L68.304 21.4646L72.785 18.1659L77.2661 21.4646L75.5577 26.7987ZM74.2407 18.7769L73.8044 17.4145L74.889 16.6177L78.0734 18.9586L77.6616 20.2467H76.2508L74.2407 18.7769ZM73.3762 17.2782L73.7391 18.4095L72.7891 17.7118L71.8391 18.4095L72.202 17.2782L71.2519 16.5805H72.4262L72.7891 15.4493L73.152 16.5805H74.3263L73.3762 17.2782ZM71.7698 17.4186L71.3335 18.7811L69.3274 20.255H67.9166L67.5048 18.9668L70.6892 16.6259L71.7698 17.4186ZM67.6516 20.6224H68.8259L67.8758 21.3201L68.2387 22.4514L67.2887 21.7536L66.3386 22.4514L66.7015 21.3201L65.7515 20.6183H66.9258L67.2887 19.487L67.6516 20.6224ZM67.2887 22.2119L68.4304 23.0541L69.1969 25.4404L68.7606 26.8029H67.4192L66.2041 23.0128L67.2887 22.2119ZM69.0257 27.1662L69.3885 26.035L69.7514 27.1662H70.9257L69.9757 27.868L70.3386 28.9993L69.3885 28.2974L68.4385 28.9993L68.8014 27.868L67.8514 27.1662H69.0257ZM70.4038 28.0084L71.5455 27.1662H74.0246L75.1662 28.0084L74.7544 29.2965H70.8197L70.4038 28.0084ZM74.6443 27.1662H75.8186L76.1815 26.035L76.5444 27.1662H77.7187L76.7686 27.868L77.1315 28.9993L76.1815 28.2974L75.2315 28.9993L75.5943 27.868L74.6443 27.1662ZM76.8135 26.7987L76.3772 25.4363L77.1438 23.05L78.2854 22.2078L79.37 23.0046L78.155 26.7946H76.8135V26.7987ZM78.2854 21.7536L77.3354 22.4514L77.6983 21.3201L76.7483 20.6183H77.9225L78.2854 19.487L78.6483 20.6183H79.8226L78.8726 21.316L79.2355 22.4472L78.2854 21.7536ZM78.9134 20.2508L78.632 19.3756L79.8226 20.2508H78.9134ZM75.4476 16.5764H77.3517L77.9389 18.4095L75.4476 16.5764ZM73.4129 16.2089L73.1316 15.3337L74.3222 16.2089H73.4129ZM72.1571 16.2089H71.2478L72.4384 15.3337L72.1571 16.2089ZM67.6353 18.4095L68.2224 16.5764H70.1266L67.6353 18.4095ZM66.6608 20.2508H65.7515L66.9421 19.3756L66.6608 20.2508ZM66.2734 21.4605L65.9921 22.3358L65.5354 20.9155L66.2734 21.4605ZM65.9921 23.533L66.9421 26.4974L65.4049 25.3661L65.9921 23.533ZM68.3733 28.0084L68.0919 28.8837L67.6353 27.4634L68.3733 28.0084ZM69.3885 28.7557L70.1266 29.2965H68.6546L69.3885 28.7557ZM74.3263 29.6681L72.7891 30.7993L71.2519 29.6681H74.3263ZM76.1856 28.7557L76.9236 29.2965H75.4516L76.1856 28.7557ZM77.2008 28.0084L77.9389 27.4676L77.4822 28.8878L77.2008 28.0084ZM79.582 23.533L80.1692 25.3661L78.632 26.4974L79.582 23.533ZM79.582 22.3399L79.3007 21.4646L80.0387 20.9238L79.582 22.3399ZM78.4404 18.7769L77.7676 16.6796L80.2018 17.4805V20.0733L78.4404 18.7769ZM74.946 16.2089L73.1846 14.9126L75.6188 14.1116L77.1234 16.2089H74.946ZM70.6281 16.2089H68.4507L69.9553 14.1116L72.3936 14.9126L70.6281 16.2089ZM67.1337 18.7769L65.3723 20.0733V17.4805L67.8106 16.6796L67.1337 18.7769ZM65.1277 20.8371L65.8004 22.9344L65.1277 25.0317L63.6231 22.9344L65.1277 20.8371ZM67.1337 27.096L67.8065 29.1933L65.3723 28.3924V25.7996L67.1337 27.096ZM70.6281 29.6681L72.3895 30.9645L69.9553 31.7654L68.4507 29.6681H70.6281ZM74.946 29.6681H77.1234L75.6188 31.7654L73.1846 30.9645L74.946 29.6681ZM78.4404 27.096L80.2018 25.7996V28.3924L77.7676 29.1933L78.4404 27.096ZM80.4465 25.0358L79.7737 22.9385L80.4465 20.8412L81.951 22.9385L80.4465 25.0358ZM80.5688 20.3788V18.5127L81.6493 21.8857L80.5688 20.3788ZM77.5964 16.2337L76.5158 14.7268L79.3496 16.8117L77.5964 16.2337ZM72.785 14.6525L71.0317 14.0745H74.5342L72.785 14.6525ZM67.9778 16.2337L66.2245 16.8117L69.0583 14.7268L67.9778 16.2337ZM65.0053 20.3788L63.9248 21.8857L65.0053 18.5127V20.3788ZM65.0053 25.4982V27.3644L63.9248 23.9913L65.0053 25.4982ZM67.9778 29.6392L69.0583 31.1461L66.2245 29.0612L67.9778 29.6392ZM72.785 31.2205L74.5383 31.7984H71.0358L72.785 31.2205ZM77.5964 29.6392L79.3496 29.0612L76.5158 31.1461L77.5964 29.6392ZM80.5688 25.4982L81.6493 23.9913L80.5688 27.3644V25.4982Z" fill="white"/>
<path d="M88.3077 19.0285L87.4677 19.3093C87.3943 19.0698 87.2557 18.9212 87.011 18.9212C86.746 18.9212 86.5951 19.0987 86.5951 19.363C86.5951 19.6726 86.8439 19.7717 87.3372 19.974C87.9855 20.23 88.3484 20.5272 88.3484 21.2332C88.3484 22.0754 87.7939 22.6204 86.9173 22.6204C86.1711 22.6204 85.7063 22.2819 85.4453 21.5841L86.2608 21.2249C86.3872 21.5883 86.6155 21.7988 86.9254 21.7988C87.1986 21.7988 87.4106 21.6295 87.4106 21.2951C87.4106 21.0144 87.2557 20.8864 86.7786 20.6965C86.0651 20.4199 85.6573 20.0855 85.6573 19.4125C85.6573 18.6446 86.1018 18.0996 87.011 18.0996C87.6756 18.0996 88.0997 18.401 88.3077 19.0285Z" fill="white"/>
<path d="M89.9796 18.1655H89.0703V22.5501H89.9796V18.1655Z" fill="white"/>
<path d="M93.6572 22.5501L91.753 19.7757V22.5501H90.8438V18.1655H91.7041L93.6082 20.9193V18.1655H94.5175V22.5501H93.6572Z" fill="white"/>
<path d="M99.0566 18.9792L98.4042 19.4994C98.1677 19.1526 97.8416 18.9214 97.3726 18.9214C96.6143 18.9214 96.129 19.5118 96.129 20.3499C96.129 21.1921 96.6387 21.7866 97.389 21.7866C97.7111 21.7866 97.9843 21.6793 98.1922 21.4894V21.0559H97.442V20.2425H99.1015V21.8444C98.706 22.3068 98.1351 22.6123 97.3767 22.6123C96.1617 22.6123 95.1953 21.6917 95.1953 20.3581C95.1953 19.0205 96.1454 18.1081 97.3523 18.1081C98.1188 18.0998 98.6652 18.4177 99.0566 18.9792Z" fill="white"/>
<path d="M103.019 22.5501L102.657 21.6418H100.846L100.475 22.5501H99.4844L101.274 18.1655H102.228L104.01 22.5501H103.019ZM102.339 20.8367L101.747 19.3793L101.156 20.8367H102.339Z" fill="white"/>
<path d="M105.888 18.1655C106.769 18.1655 107.352 18.6362 107.352 19.5486C107.352 20.461 106.769 20.9317 105.888 20.9317H105.456V22.5501H104.547V18.1655H105.888ZM105.456 20.1101H105.839C106.186 20.1101 106.431 19.916 106.431 19.5486C106.431 19.1812 106.186 18.9789 105.839 18.9789H105.456V20.1101Z" fill="white"/>
<path d="M112.369 20.3497C112.369 21.6915 111.402 22.608 110.118 22.608C108.825 22.608 107.867 21.6956 107.867 20.3497C107.867 19.012 108.829 18.0996 110.118 18.0996C111.406 18.0996 112.369 19.0162 112.369 20.3497ZM108.793 20.3497C108.793 21.1919 109.335 21.7864 110.114 21.7864C110.893 21.7864 111.435 21.196 111.435 20.3497C111.435 19.5116 110.897 18.9212 110.114 18.9212C109.335 18.9212 108.793 19.5116 108.793 20.3497Z" fill="white"/>
<path d="M114.376 20.9275H113.948V22.5501H113.039V18.1655H114.376C115.257 18.1655 115.844 18.6362 115.844 19.5486C115.844 20.0977 115.628 20.4858 115.269 20.7046L116.138 22.5501H115.131L114.376 20.9275ZM114.328 20.1101C114.674 20.1101 114.919 19.916 114.919 19.5486C114.919 19.1812 114.674 18.9789 114.328 18.9789H113.952V20.1101H114.328Z" fill="white"/>
<path d="M117.632 18.9789V19.9078H118.826V20.7046H117.632V21.7326H118.998V22.5501H116.727V18.1655H118.994V18.9789H117.632Z" fill="white"/>
<path d="M88.3032 24.1895L87.8221 24.5693C87.6468 24.3175 87.398 24.1441 87.0555 24.1441C86.5051 24.1441 86.1341 24.5776 86.1341 25.1886C86.1341 25.8037 86.5051 26.2372 87.0555 26.2372C87.398 26.2372 87.6468 26.0721 87.8221 25.812L88.3032 26.1918C88.0178 26.6047 87.6019 26.8359 87.0474 26.8359C86.1585 26.8359 85.4531 26.1629 85.4531 25.1886C85.4531 24.2142 86.1585 23.5454 87.0474 23.5454C87.6019 23.5495 88.0178 23.7807 88.3032 24.1895Z" fill="white"/>
<path d="M89.3677 23.5947H88.7031V26.7985H89.3677V23.5947Z" fill="white"/>
<path d="M91.4622 24.1892V26.7985H90.7976V24.1892H89.7578V23.5947H92.506V24.1892H91.4622Z" fill="white"/>
<path d="M94.576 26.7985H93.9155V25.6095L92.6719 23.5947H93.4425L94.2417 24.9448L95.0408 23.5947H95.8155L94.576 25.6095V26.7985Z" fill="white"/>
<path d="M99.9895 25.1925C99.9895 26.171 99.2841 26.8398 98.3463 26.8398C97.4044 26.8398 96.7031 26.171 96.7031 25.1925C96.7031 24.2181 97.4044 23.5493 98.3463 23.5493C99.2882 23.5493 99.9895 24.214 99.9895 25.1925ZM97.3759 25.1925C97.3759 25.8076 97.7714 26.2411 98.3382 26.2411C98.9049 26.2411 99.3004 25.8076 99.3004 25.1925C99.3004 24.5815 98.909 24.148 98.3382 24.148C97.7755 24.148 97.3759 24.5815 97.3759 25.1925Z" fill="white"/>
<path d="M101.141 24.1892V24.8622H101.957V25.4608H101.141V26.7985H100.477V23.5947H102.108V24.1892H101.141Z" fill="white"/>
<path d="M104.997 23.5947C105.907 23.5947 106.624 24.148 106.624 25.2007C106.624 26.2494 105.907 26.7985 104.997 26.7985H103.758V23.5947H104.997ZM104.422 26.204H104.997C105.515 26.204 105.943 25.8696 105.943 25.2007C105.943 24.5237 105.511 24.1892 104.997 24.1892H104.422V26.204Z" fill="white"/>
<path d="M107.79 24.1892V24.8663H108.658V25.4485H107.79V26.1999H108.789V26.7985H107.125V23.5947H108.785V24.1892H107.79Z" fill="white"/>
<path d="M111.193 24.2225L110.581 24.429C110.528 24.2556 110.426 24.1482 110.247 24.1482C110.051 24.1482 109.941 24.2762 109.941 24.4703C109.941 24.6973 110.125 24.7716 110.483 24.9161C110.956 25.1061 111.226 25.3207 111.226 25.8368C111.226 26.452 110.818 26.8524 110.182 26.8524C109.635 26.8524 109.297 26.6047 109.109 26.0969L109.705 25.8368C109.798 26.101 109.962 26.2579 110.19 26.2579C110.39 26.2579 110.545 26.1341 110.545 25.8905C110.545 25.6841 110.43 25.5891 110.084 25.4529C109.566 25.2506 109.264 25.007 109.264 24.5157C109.264 23.9542 109.591 23.5578 110.255 23.5578C110.732 23.5496 111.038 23.7684 111.193 24.2225Z" fill="white"/>
<path d="M112.415 23.5947H111.75V26.7985H112.415V23.5947Z" fill="white"/>
<path d="M115.724 24.1895L115.247 24.5693C115.075 24.3175 114.835 24.1441 114.496 24.1441C113.942 24.1441 113.587 24.5776 113.587 25.1886C113.587 25.8037 113.958 26.2372 114.509 26.2372C114.745 26.2372 114.945 26.1588 115.096 26.0184V25.7005H114.545V25.106H115.76V26.2744C115.475 26.6129 115.055 26.8359 114.501 26.8359C113.612 26.8359 112.906 26.1629 112.906 25.1886C112.906 24.2142 113.599 23.5454 114.484 23.5454C115.039 23.5495 115.438 23.7807 115.724 24.1895Z" fill="white"/>
<path d="M118.375 26.7985L116.985 24.7714V26.7985H116.32V23.5947H116.952L118.343 25.6053V23.5947H119.003V26.7985H118.375Z" fill="white"/>
<path d="M26.2874 37.4585H26.7114V39.337C26.7114 39.6632 26.6747 39.9233 26.6013 40.1132C26.5279 40.3031 26.3975 40.46 26.2058 40.5838C26.0142 40.7036 25.7655 40.7655 25.4556 40.7655C25.1538 40.7655 24.9092 40.7118 24.7176 40.6086C24.5259 40.5054 24.3914 40.3526 24.3098 40.1545C24.2283 39.9563 24.1875 39.6838 24.1875 39.3411V37.4626H24.6116V39.337C24.6116 39.6177 24.636 39.8283 24.689 39.9604C24.742 40.0925 24.8317 40.1957 24.9581 40.2701C25.0845 40.3402 25.2395 40.3774 25.423 40.3774C25.7369 40.3774 25.9571 40.3072 26.0916 40.1627C26.2262 40.0182 26.2914 39.7416 26.2914 39.337V37.4585H26.2874Z" fill="white"/>
<path d="M27.3672 40.7116V38.3584H27.7219V38.6928C27.8932 38.4327 28.1378 38.3047 28.464 38.3047C28.6026 38.3047 28.7331 38.3295 28.8514 38.3831C28.9696 38.4327 29.0552 38.5029 29.1164 38.5854C29.1735 38.668 29.2143 38.7671 29.2387 38.8786C29.255 38.9529 29.2591 39.0809 29.2591 39.2666V40.7158H28.8636V39.2832C28.8636 39.1221 28.8473 38.9983 28.8187 38.9198C28.7902 38.8414 28.7331 38.7753 28.6556 38.7258C28.5782 38.6763 28.4844 38.6556 28.3825 38.6556C28.2153 38.6556 28.0685 38.7093 27.9462 38.8166C27.8239 38.924 27.7627 39.1304 27.7627 39.4318V40.7199H27.3672V40.7116Z" fill="white"/>
<path d="M29.8594 37.9168V37.4585H30.2549V37.9168H29.8594ZM29.8594 40.7118V38.3585H30.2549V40.7118H29.8594Z" fill="white"/>
<path d="M31.7171 40.3525L31.7741 40.7035C31.6641 40.7282 31.5621 40.7406 31.4765 40.7406C31.3338 40.7406 31.2237 40.7158 31.1421 40.6704C31.0647 40.625 31.0076 40.5631 30.975 40.4888C30.9424 40.4145 30.926 40.2576 30.926 40.0181V38.6639H30.6406V38.3543H30.9301V37.7722L31.3216 37.5327V38.3543H31.7171V38.6639H31.3216V40.0388C31.3216 40.1544 31.3297 40.2245 31.3419 40.2576C31.3542 40.2906 31.3786 40.3154 31.4113 40.336C31.4439 40.3567 31.4887 40.3649 31.5458 40.3649C31.5866 40.369 31.6477 40.3649 31.7171 40.3525Z" fill="white"/>
<path d="M33.6972 39.952L34.105 40.0015C34.0397 40.241 33.9215 40.4309 33.7462 40.563C33.5708 40.6951 33.3506 40.7612 33.0815 40.7612C32.7431 40.7612 32.4699 40.6538 32.2742 40.4433C32.0744 40.2327 31.9766 39.9355 31.9766 39.5515C31.9766 39.1552 32.0785 38.8497 32.2783 38.6308C32.4781 38.412 32.7431 38.3047 33.0611 38.3047C33.371 38.3047 33.6279 38.412 33.8236 38.6267C34.0193 38.8414 34.1213 39.1428 34.1213 39.5309C34.1213 39.5556 34.1213 39.5887 34.1172 39.6382H32.3843C32.4006 39.8983 32.4699 40.0965 32.6004 40.2327C32.7309 40.369 32.894 40.4392 33.0856 40.4392C33.2283 40.4392 33.3547 40.402 33.4567 40.3236C33.5586 40.2451 33.6361 40.1213 33.6972 39.952ZM32.4047 39.3038H33.7054C33.6891 39.1056 33.6401 38.957 33.5545 38.8579C33.4281 38.7052 33.265 38.6267 33.0652 38.6267C32.8858 38.6267 32.7309 38.6886 32.6086 38.8125C32.4862 38.9364 32.4169 39.1015 32.4047 39.3038Z" fill="white"/>
<path d="M36.1045 40.7118V40.4146C35.9577 40.6499 35.7416 40.7655 35.4521 40.7655C35.2686 40.7655 35.0974 40.7159 34.9424 40.6086C34.7875 40.5054 34.6651 40.3609 34.5795 40.1751C34.4939 39.9893 34.4531 39.7746 34.4531 39.5352C34.4531 39.2998 34.4898 39.0852 34.5673 38.8952C34.6448 38.7053 34.7589 38.5567 34.9139 38.4535C35.0688 38.3503 35.2401 38.3007 35.4317 38.3007C35.5703 38.3007 35.6967 38.3296 35.8068 38.3916C35.9169 38.4494 36.0066 38.5278 36.0759 38.6269V37.4585H36.4714V40.7077H36.1045V40.7118ZM34.8609 39.5352C34.8609 39.8366 34.922 40.0636 35.0484 40.2123C35.1748 40.3609 35.3216 40.4352 35.4929 40.4352C35.6641 40.4352 35.8109 40.365 35.9332 40.2205C36.0515 40.076 36.1126 39.8613 36.1126 39.5682C36.1126 39.2462 36.0515 39.0108 35.9291 38.8581C35.8068 38.7053 35.656 38.631 35.4766 38.631C35.3012 38.631 35.1544 38.7053 35.0362 38.8498C34.9179 38.9943 34.8609 39.2214 34.8609 39.5352Z" fill="white"/>
<path d="M38.3828 40.7116V37.4624H38.8191L40.5071 40.0139V37.4624H40.9149V40.7116H40.4786L38.7906 38.156V40.7116H38.3828V40.7116Z" fill="white"/>
<path d="M43.0926 40.4187C42.9458 40.5426 42.8072 40.6334 42.6726 40.683C42.5381 40.7325 42.3913 40.7614 42.2363 40.7614C41.9795 40.7614 41.7837 40.6995 41.6492 40.5715C41.5106 40.4435 41.4453 40.2825 41.4453 40.0885C41.4453 39.9729 41.4698 39.8696 41.5228 39.7706C41.5758 39.6756 41.641 39.5972 41.7267 39.5394C41.8123 39.4816 41.9061 39.4361 42.0121 39.4072C42.0895 39.3866 42.2078 39.366 42.3627 39.3494C42.6808 39.3123 42.9173 39.2669 43.064 39.2132C43.064 39.1595 43.0681 39.1224 43.0681 39.11C43.0681 38.949 43.0314 38.8334 42.958 38.7673C42.8561 38.6765 42.7093 38.6311 42.5095 38.6311C42.326 38.6311 42.1874 38.6641 42.0977 38.7302C42.008 38.7962 41.9428 38.9118 41.902 39.0811L41.5146 39.0274C41.5513 38.8581 41.6084 38.726 41.6859 38.6228C41.7634 38.5196 41.8816 38.4412 42.0325 38.3834C42.1833 38.3297 42.3587 38.3008 42.5584 38.3008C42.7582 38.3008 42.9173 38.3256 43.0437 38.371C43.1701 38.4164 43.2598 38.4783 43.3168 38.5485C43.3739 38.6187 43.4147 38.7095 43.4392 38.821C43.4514 38.887 43.4595 39.0109 43.4595 39.1884V39.721C43.4595 40.0926 43.4677 40.3279 43.484 40.427C43.5003 40.5261 43.5329 40.621 43.5819 40.7077H43.1701C43.1334 40.6252 43.1048 40.5302 43.0926 40.4187ZM43.06 39.527C42.9173 39.5848 42.7012 39.6384 42.4157 39.6797C42.2526 39.7045 42.1385 39.7293 42.0732 39.7582C42.008 39.7871 41.955 39.8325 41.9183 39.8862C41.8816 39.9398 41.8653 40.0059 41.8653 40.0761C41.8653 40.1834 41.9061 40.2701 41.9835 40.3403C42.061 40.4105 42.1792 40.4476 42.3342 40.4476C42.485 40.4476 42.6196 40.4146 42.7379 40.3486C42.8561 40.2825 42.9417 40.1875 42.9988 40.0719C43.0396 39.9811 43.064 39.849 43.064 39.6715V39.527H43.06Z" fill="white"/>
<path d="M44.9321 40.3525L44.9892 40.7035C44.8791 40.7282 44.7771 40.7406 44.6915 40.7406C44.5488 40.7406 44.4387 40.7158 44.3572 40.6704C44.2797 40.625 44.2226 40.5631 44.19 40.4888C44.1574 40.4145 44.1411 40.2576 44.1411 40.0181V38.6639H43.8516V38.3543H44.1411V37.7722L44.5325 37.5327V38.3543H44.928V38.6639H44.5325V40.0388C44.5325 40.1544 44.5406 40.2245 44.5529 40.2576C44.5651 40.2906 44.5896 40.3154 44.6222 40.336C44.6548 40.3567 44.6997 40.3649 44.7567 40.3649C44.8016 40.369 44.8628 40.3649 44.9321 40.3525Z" fill="white"/>
<path d="M45.3203 37.9168V37.4585H45.7158V37.9168H45.3203ZM45.3203 40.7118V38.3585H45.7158V40.7118H45.3203Z" fill="white"/>
<path d="M46.1719 39.5311C46.1719 39.0935 46.2901 38.7714 46.5307 38.5609C46.7305 38.3875 46.9751 38.3008 47.2605 38.3008C47.5786 38.3008 47.8436 38.4081 48.0434 38.6187C48.2432 38.8292 48.3492 39.1224 48.3492 39.4981C48.3492 39.7995 48.3044 40.0389 48.2147 40.2123C48.125 40.3857 47.9945 40.522 47.8232 40.6169C47.652 40.7119 47.4644 40.7614 47.2605 40.7614C46.9343 40.7614 46.6734 40.6541 46.4695 40.4435C46.2738 40.233 46.1719 39.9316 46.1719 39.5311ZM46.5755 39.5311C46.5755 39.8325 46.6408 40.0596 46.7713 40.2082C46.9017 40.3568 47.0648 40.4311 47.2605 40.4311C47.4563 40.4311 47.6194 40.3568 47.7498 40.2041C47.8803 40.0513 47.9455 39.8242 47.9455 39.5146C47.9455 39.2215 47.8803 39.0026 47.7498 38.854C47.6194 38.7054 47.4563 38.6269 47.2605 38.6269C47.0648 38.6269 46.9017 38.7013 46.7713 38.8499C46.6408 38.9985 46.5755 39.2297 46.5755 39.5311Z" fill="white"/>
<path d="M48.8125 40.7116V38.3584H49.1672V38.6928C49.3385 38.4327 49.5831 38.3047 49.9093 38.3047C50.048 38.3047 50.1784 38.3295 50.2967 38.3831C50.4149 38.4327 50.5005 38.5029 50.5617 38.5854C50.6188 38.668 50.6596 38.7671 50.684 38.8786C50.7003 38.9529 50.7044 39.0809 50.7044 39.2666V40.7158H50.3089V39.2832C50.3089 39.1221 50.2926 38.9983 50.2641 38.9198C50.2355 38.8414 50.1784 38.7753 50.101 38.7258C50.0235 38.6763 49.9297 38.6556 49.8278 38.6556C49.6606 38.6556 49.5138 38.7093 49.3915 38.8166C49.2692 38.924 49.208 39.1304 49.208 39.4318V40.7199H48.8125V40.7116Z" fill="white"/>
<path d="M51.1484 40.0056L51.5399 39.9437C51.5603 40.1006 51.6214 40.2244 51.7234 40.307C51.8253 40.3937 51.9639 40.435 52.1433 40.435C52.3227 40.435 52.4573 40.3978 52.547 40.3235C52.6367 40.2492 52.6775 40.1625 52.6775 40.0593C52.6775 39.9685 52.6408 39.8983 52.5633 39.8446C52.5103 39.8074 52.3757 39.7662 52.1596 39.7084C51.8701 39.634 51.6703 39.5721 51.5603 39.5184C51.4502 39.4648 51.3645 39.3905 51.3075 39.2955C51.2504 39.2005 51.2218 39.0932 51.2218 38.9776C51.2218 38.8744 51.2463 38.7753 51.2911 38.6845C51.3401 38.5936 51.4012 38.5193 51.4869 38.4615C51.548 38.4161 51.6337 38.3748 51.7397 38.3459C51.8457 38.3129 51.9598 38.2964 52.0781 38.2964C52.2616 38.2964 52.4206 38.3212 52.5592 38.3748C52.6978 38.4285 52.7998 38.4987 52.865 38.5895C52.9303 38.6803 52.9751 38.8001 52.9996 38.9528L52.6122 39.0065C52.5959 38.8868 52.5429 38.7918 52.4614 38.7216C52.3757 38.6514 52.2575 38.6184 52.1066 38.6184C51.9272 38.6184 51.7967 38.6473 51.7193 38.7092C51.6418 38.7712 51.6051 38.8414 51.6051 38.9239C51.6051 38.9776 51.6214 39.023 51.654 39.0643C51.6867 39.1056 51.7356 39.1427 51.8049 39.1716C51.8457 39.1882 51.9598 39.2212 52.1515 39.2749C52.4287 39.3492 52.6245 39.4111 52.7345 39.4606C52.8446 39.5102 52.9303 39.5804 52.9955 39.6712C53.0607 39.762 53.0893 39.8776 53.0893 40.0139C53.0893 40.146 53.0526 40.274 52.9751 40.3896C52.8976 40.5093 52.7876 40.596 52.6448 40.6621C52.5021 40.7281 52.335 40.757 52.1556 40.757C51.8538 40.757 51.6214 40.6951 51.4665 40.5671C51.2911 40.4432 51.1933 40.2575 51.1484 40.0056Z" fill="white"/>
<path d="M1 45.6662V42.417H3.32004V42.8009H1.42405V43.7959H3.2018V44.1758H1.42405V45.2822H3.39343V45.6662H1V45.6662Z" fill="white"/>
<path d="M5.44041 45.6659V45.3687C5.29362 45.604 5.07752 45.7196 4.78803 45.7196C4.60454 45.7196 4.43329 45.67 4.27835 45.5627C4.12341 45.4595 4.00109 45.315 3.91546 45.1292C3.82984 44.9434 3.78906 44.7287 3.78906 44.4893C3.78906 44.2539 3.82576 44.0393 3.90323 43.8493C3.9807 43.6594 4.09487 43.5108 4.24981 43.4076C4.40475 43.3044 4.576 43.2548 4.76764 43.2548C4.90627 43.2548 5.03267 43.2837 5.14276 43.3457C5.25285 43.4035 5.34255 43.4819 5.41187 43.581V42.4126H5.8033V45.6618H5.44041V45.6659ZM4.1968 44.4893C4.1968 44.7907 4.25796 45.0177 4.38436 45.1664C4.51076 45.315 4.65755 45.3893 4.8288 45.3893C5.00005 45.3893 5.14684 45.3191 5.26916 45.1746C5.3874 45.0301 5.44856 44.8154 5.44856 44.5223C5.44856 44.2003 5.3874 43.9649 5.26508 43.8122C5.14276 43.6594 4.9919 43.5851 4.81249 43.5851C4.63716 43.5851 4.49038 43.6594 4.37213 43.8039C4.25389 43.9484 4.1968 44.1755 4.1968 44.4893Z" fill="white"/>
<path d="M7.95498 45.666V45.3192C7.77557 45.5834 7.52685 45.7197 7.21697 45.7197C7.07834 45.7197 6.95194 45.6949 6.83369 45.6412C6.71545 45.5876 6.62574 45.5215 6.56866 45.4389C6.51158 45.3564 6.4708 45.2614 6.44634 45.1417C6.43003 45.0632 6.42188 44.9394 6.42188 44.7701V43.3127H6.81738V44.6174C6.81738 44.8279 6.82554 44.9683 6.84185 45.0385C6.86631 45.1417 6.91932 45.2243 7.00087 45.2862C7.08241 45.344 7.18027 45.377 7.29852 45.377C7.41676 45.377 7.52685 45.344 7.63286 45.2862C7.73888 45.2284 7.80819 45.1417 7.85304 45.0343C7.89789 44.927 7.91828 44.7742 7.91828 44.5719V43.3086H8.31379V45.6619H7.95498V45.666Z" fill="white"/>
<path d="M10.436 44.8031L10.8233 44.8526C10.7826 45.1251 10.6725 45.3357 10.4972 45.4884C10.3218 45.6412 10.1098 45.7196 9.85292 45.7196C9.53488 45.7196 9.27801 45.6164 9.08637 45.4017C8.89473 45.1912 8.79688 44.8898 8.79688 44.4976C8.79688 44.2416 8.83765 44.0187 8.92328 43.8288C9.0089 43.6388 9.13122 43.4943 9.30247 43.3994C9.47372 43.3044 9.65721 43.2549 9.857 43.2549C10.1098 43.2549 10.3177 43.3209 10.4768 43.4489C10.6358 43.5769 10.7418 43.7627 10.7866 43.998L10.4034 44.06C10.3667 43.9031 10.3014 43.7833 10.2077 43.7008C10.1139 43.6223 10.0038 43.581 9.87331 43.581C9.67352 43.581 9.5145 43.6512 9.3881 43.7957C9.26578 43.9402 9.20054 44.1673 9.20054 44.4811C9.20054 44.799 9.2617 45.026 9.37994 45.1705C9.49819 45.315 9.65721 45.3852 9.84884 45.3852C10.0038 45.3852 10.1343 45.3357 10.2362 45.2407C10.3422 45.1499 10.4074 45.0013 10.436 44.8031Z" fill="white"/>
<path d="M12.6785 45.3728C12.5317 45.4967 12.3931 45.5875 12.2585 45.6371C12.124 45.6866 11.9772 45.7155 11.8223 45.7155C11.5654 45.7155 11.3697 45.6536 11.2351 45.5256C11.0965 45.3976 11.0312 45.2366 11.0312 45.0426C11.0312 44.927 11.0557 44.8237 11.1087 44.7247C11.1617 44.6297 11.227 44.5513 11.3126 44.4935C11.3982 44.4357 11.492 44.3902 11.598 44.3613C11.6755 44.3407 11.7937 44.3201 11.9487 44.3035C12.2667 44.2664 12.5032 44.221 12.65 44.1673C12.65 44.1136 12.6541 44.0765 12.6541 44.0641C12.6541 43.9031 12.6174 43.7875 12.544 43.7214C12.442 43.6306 12.2952 43.5852 12.0955 43.5852C11.912 43.5852 11.7733 43.6182 11.6836 43.6843C11.5939 43.7503 11.5287 43.8659 11.4879 44.0352L11.1006 43.9815C11.1373 43.8122 11.1943 43.6801 11.2718 43.5769C11.3493 43.4737 11.4675 43.3953 11.6184 43.3375C11.7693 43.2838 11.9446 43.2549 12.1444 43.2549C12.3442 43.2549 12.5032 43.2797 12.6296 43.3251C12.756 43.3705 12.8457 43.4324 12.9028 43.5026C12.9599 43.5728 13.0006 43.6636 13.0251 43.7751C13.0373 43.8411 13.0455 43.965 13.0455 44.1425V44.6751C13.0455 45.0467 13.0536 45.282 13.07 45.3811C13.0863 45.4802 13.1189 45.5751 13.1678 45.6618H12.756C12.7152 45.5834 12.6908 45.4843 12.6785 45.3728ZM12.6459 44.4811C12.5032 44.5389 12.2871 44.5925 12.0017 44.6338C11.8386 44.6586 11.7244 44.6834 11.6592 44.7123C11.5939 44.7412 11.5409 44.7866 11.5042 44.8403C11.4675 44.8939 11.4512 44.96 11.4512 45.0302C11.4512 45.1375 11.492 45.2242 11.5695 45.2944C11.6469 45.3646 11.7652 45.4017 11.9201 45.4017C12.071 45.4017 12.2055 45.3687 12.3238 45.3027C12.442 45.2366 12.5277 45.1416 12.5847 45.026C12.6255 44.9352 12.65 44.8031 12.65 44.6256V44.4811H12.6459Z" fill="white"/>
<path d="M14.518 45.3071L14.5751 45.658C14.465 45.6828 14.3631 45.6952 14.2774 45.6952C14.1347 45.6952 14.0246 45.6704 13.9431 45.625C13.8656 45.5796 13.8085 45.5177 13.7759 45.4434C13.7433 45.369 13.727 45.2122 13.727 44.9727V43.6185H13.4375V43.3089H13.727V42.7268L14.1184 42.4873V43.3089H14.5139V43.6185H14.1184V44.9933C14.1184 45.109 14.1266 45.1791 14.1388 45.2122C14.151 45.2452 14.1755 45.27 14.2081 45.2906C14.2407 45.3112 14.2856 45.3195 14.3427 45.3195C14.3875 45.3236 14.4446 45.3195 14.518 45.3071Z" fill="white"/>
<path d="M14.9062 42.8709V42.4126H15.3018V42.8709H14.9062ZM14.9062 45.6659V43.3126H15.3018V45.6659H14.9062Z" fill="white"/>
<path d="M15.7578 44.4852C15.7578 44.0476 15.8761 43.7255 16.1166 43.515C16.3164 43.3416 16.5611 43.2549 16.8465 43.2549C17.1645 43.2549 17.4295 43.3622 17.6293 43.5728C17.8291 43.7833 17.9351 44.0765 17.9351 44.4522C17.9351 44.7536 17.8903 44.993 17.8006 45.1664C17.7109 45.3398 17.5804 45.4761 17.4092 45.571C17.2379 45.666 17.0503 45.7155 16.8465 45.7155C16.5203 45.7155 16.2593 45.6082 16.0555 45.3976C15.8557 45.1871 15.7578 44.8857 15.7578 44.4852ZM16.1615 44.4852C16.1615 44.7866 16.2267 45.0137 16.3572 45.1623C16.4877 45.3109 16.6508 45.3852 16.8465 45.3852C17.0422 45.3852 17.2053 45.3109 17.3358 45.1582C17.4662 45.0054 17.5315 44.7783 17.5315 44.4687C17.5315 44.1756 17.4662 43.9567 17.3358 43.8081C17.2053 43.6595 17.0422 43.581 16.8465 43.581C16.6508 43.581 16.4877 43.6554 16.3572 43.804C16.2267 43.9526 16.1615 44.1838 16.1615 44.4852Z" fill="white"/>
<path d="M18.3906 45.6662V43.313H18.7454V43.6474C18.9166 43.3873 19.1613 43.2593 19.4874 43.2593C19.6261 43.2593 19.7566 43.284 19.8748 43.3377C19.993 43.3873 20.0787 43.4574 20.1398 43.54C20.1969 43.6226 20.2377 43.7217 20.2622 43.8331C20.2785 43.9075 20.2825 44.0355 20.2825 44.2212V45.6704H19.887V44.2378C19.887 44.0767 19.8707 43.9529 19.8422 43.8744C19.8136 43.796 19.7566 43.7299 19.6791 43.6804C19.6016 43.6309 19.5078 43.6102 19.4059 43.6102C19.2387 43.6102 19.0919 43.6639 18.9696 43.7712C18.8473 43.8786 18.7861 44.085 18.7861 44.3864V45.6745H18.3906V45.6662Z" fill="white"/>
<path d="M22.4051 45.3728C22.2583 45.4967 22.1197 45.5875 21.9851 45.6371C21.8506 45.6866 21.7038 45.7155 21.5488 45.7155C21.292 45.7155 21.0962 45.6536 20.9617 45.5256C20.8231 45.3976 20.7578 45.2366 20.7578 45.0426C20.7578 44.927 20.7823 44.8237 20.8353 44.7247C20.8883 44.6297 20.9535 44.5513 21.0392 44.4935C21.1248 44.4357 21.2186 44.3902 21.3246 44.3613C21.402 44.3407 21.5203 44.3201 21.6752 44.3035C21.9933 44.2664 22.2298 44.221 22.3765 44.1673C22.3765 44.1136 22.3806 44.0765 22.3806 44.0641C22.3806 43.9031 22.3439 43.7875 22.2705 43.7214C22.1686 43.6306 22.0218 43.5852 21.822 43.5852C21.6385 43.5852 21.4999 43.6182 21.4102 43.6843C21.3205 43.7503 21.2553 43.8659 21.2145 44.0352L20.8271 43.9815C20.8638 43.8122 20.9209 43.6801 20.9984 43.5769C21.0758 43.4737 21.1941 43.3953 21.345 43.3375C21.4958 43.2838 21.6712 43.2549 21.8709 43.2549C22.0707 43.2549 22.2298 43.2797 22.3562 43.3251C22.4826 43.3705 22.5723 43.4324 22.6293 43.5026C22.6864 43.5728 22.7272 43.6636 22.7517 43.7751C22.7639 43.8411 22.772 43.965 22.772 44.1425V44.6751C22.772 45.0467 22.7802 45.282 22.7965 45.3811C22.8128 45.4802 22.8454 45.5751 22.8944 45.6618H22.4866C22.4459 45.5834 22.4173 45.4843 22.4051 45.3728ZM22.3725 44.4811C22.2298 44.5389 22.0137 44.5925 21.7282 44.6338C21.5651 44.6586 21.451 44.6834 21.3857 44.7123C21.3205 44.7412 21.2675 44.7866 21.2308 44.8403C21.1941 44.8939 21.1778 44.96 21.1778 45.0302C21.1778 45.1375 21.2186 45.2242 21.296 45.2944C21.3735 45.3646 21.4917 45.4017 21.6467 45.4017C21.7976 45.4017 21.9321 45.3687 22.0503 45.3027C22.1686 45.2366 22.2542 45.1416 22.3113 45.026C22.3521 44.9352 22.3765 44.8031 22.3765 44.6256V44.4811H22.3725Z" fill="white"/>
<path d="M23.375 45.6662V42.417H23.7705V45.6662H23.375Z" fill="white"/>
<path d="M24.4854 45.6661V45.2119H24.9339V45.6661C24.9339 45.8312 24.9054 45.9674 24.8483 46.0707C24.7912 46.1739 24.6974 46.2523 24.571 46.3101L24.4609 46.1408C24.5425 46.1037 24.6036 46.05 24.6444 45.9757C24.6852 45.9014 24.7056 45.8023 24.7097 45.6661H24.4854Z" fill="white"/>
<path d="M26.7734 44.6216L27.173 44.5844C27.1934 44.7454 27.2342 44.8817 27.3035 44.9849C27.3728 45.0881 27.4788 45.1748 27.6256 45.2367C27.7724 45.3028 27.9355 45.3317 28.119 45.3317C28.2821 45.3317 28.4248 45.3069 28.5471 45.2574C28.6694 45.2078 28.7632 45.1418 28.8244 45.0551C28.8855 44.9684 28.9141 44.8775 28.9141 44.7785C28.9141 44.6752 28.8855 44.5885 28.8284 44.5101C28.7714 44.4317 28.6735 44.3697 28.539 44.3202C28.4533 44.2872 28.2617 44.2335 27.9681 44.1633C27.6745 44.0931 27.4666 44.0229 27.3483 43.961C27.1934 43.8784 27.0792 43.7793 27.0058 43.6596C26.9325 43.5399 26.8917 43.4036 26.8917 43.255C26.8917 43.0899 26.9365 42.9371 27.0303 42.7926C27.1241 42.6481 27.2586 42.5408 27.434 42.4665C27.6093 42.3921 27.8091 42.355 28.0211 42.355C28.2576 42.355 28.4696 42.3921 28.649 42.4706C28.8325 42.549 28.9712 42.6605 29.069 42.8133C29.1669 42.966 29.2199 43.1353 29.228 43.3252L28.8203 43.3582C28.7999 43.1518 28.7224 42.999 28.596 42.8917C28.4696 42.7885 28.2821 42.7348 28.0374 42.7348C27.7806 42.7348 27.593 42.7844 27.4748 42.8793C27.3565 42.9743 27.2994 43.0899 27.2994 43.222C27.2994 43.3376 27.3402 43.4367 27.4258 43.511C27.5074 43.5853 27.7194 43.6637 28.066 43.7422C28.4126 43.8206 28.649 43.8908 28.7754 43.9486C28.963 44.0353 29.1016 44.1468 29.1913 44.2789C29.281 44.411 29.3259 44.5679 29.3259 44.7413C29.3259 44.9147 29.277 45.0757 29.1791 45.2285C29.0812 45.3812 28.9426 45.501 28.7591 45.5835C28.5756 45.6702 28.3677 45.7115 28.1394 45.7115C27.8499 45.7115 27.6052 45.6702 27.4095 45.5835C27.2138 45.4968 27.0589 45.3688 26.9488 45.1954C26.8387 45.0303 26.7816 44.8363 26.7734 44.6216Z" fill="white"/>
<path d="M31.3813 44.8031L31.7687 44.8526C31.7279 45.1251 31.6178 45.3357 31.4425 45.4884C31.2671 45.6412 31.0551 45.7196 30.7982 45.7196C30.4802 45.7196 30.2233 45.6164 30.0317 45.4017C29.84 45.1912 29.7422 44.8898 29.7422 44.4976C29.7422 44.2416 29.783 44.0187 29.8686 43.8288C29.9542 43.6388 30.0765 43.4943 30.2478 43.3994C30.419 43.3044 30.6025 43.2549 30.8023 43.2549C31.0551 43.2549 31.2631 43.3209 31.4221 43.4489C31.5811 43.5769 31.6871 43.7627 31.732 43.998L31.3487 44.06C31.312 43.9031 31.2467 43.7833 31.153 43.7008C31.0592 43.6223 30.9491 43.581 30.8186 43.581C30.6188 43.581 30.4598 43.6512 30.3334 43.7957C30.2111 43.9402 30.1459 44.1673 30.1459 44.4811C30.1459 44.799 30.207 45.026 30.3253 45.1705C30.4435 45.315 30.6025 45.3852 30.7942 45.3852C30.9491 45.3852 31.0796 45.3357 31.1815 45.2407C31.2875 45.1499 31.3568 45.0013 31.3813 44.8031Z" fill="white"/>
<path d="M32.1094 42.8709V42.4126H32.5049V42.8709H32.1094ZM32.1094 45.6659V43.3126H32.5049V45.6659H32.1094Z" fill="white"/>
<path d="M34.6972 44.9066L35.105 44.9561C35.0397 45.1956 34.9215 45.3855 34.7462 45.5176C34.5708 45.6497 34.3506 45.7158 34.0815 45.7158C33.7431 45.7158 33.4699 45.6084 33.2742 45.3979C33.0744 45.1873 32.9766 44.8901 32.9766 44.5061C32.9766 44.1098 33.0785 43.8042 33.2783 43.5854C33.4781 43.3666 33.7431 43.2593 34.0612 43.2593C34.371 43.2593 34.6279 43.3666 34.8236 43.5813C35.0193 43.796 35.1213 44.0974 35.1213 44.4855C35.1213 44.5102 35.1213 44.5433 35.1172 44.5928H33.3843C33.4006 44.8529 33.4699 45.0511 33.6004 45.1873C33.7309 45.3236 33.894 45.3938 34.0856 45.3938C34.2283 45.3938 34.3547 45.3566 34.4567 45.2782C34.5586 45.1997 34.6361 45.0758 34.6972 44.9066ZM33.4047 44.2625H34.7054C34.6891 44.0643 34.6401 43.9157 34.5545 43.8166C34.4281 43.6639 34.265 43.5854 34.0652 43.5854C33.8858 43.5854 33.7309 43.6474 33.6086 43.7712C33.4862 43.8909 33.4169 44.0561 33.4047 44.2625Z" fill="white"/>
<path d="M35.5938 45.6662V43.313H35.9485V43.6474C36.1197 43.3873 36.3644 43.2593 36.6906 43.2593C36.8292 43.2593 36.9597 43.284 37.0779 43.3377C37.1962 43.3873 37.2818 43.4574 37.343 43.54C37.4 43.6226 37.4408 43.7217 37.4653 43.8331C37.4816 43.9075 37.4857 44.0355 37.4857 44.2212V45.6704H37.0902V44.2378C37.0902 44.0767 37.0738 43.9529 37.0453 43.8744C37.0168 43.796 36.9597 43.7299 36.8822 43.6804C36.8047 43.6309 36.711 43.6102 36.609 43.6102C36.4418 43.6102 36.2951 43.6639 36.1727 43.7712C36.0504 43.8786 35.9893 44.085 35.9893 44.3864V45.6745H35.5938V45.6662Z" fill="white"/>
<path d="M38.9555 45.3071L39.0126 45.658C38.9025 45.6828 38.8006 45.6952 38.7149 45.6952C38.5722 45.6952 38.4621 45.6704 38.3806 45.625C38.3031 45.5796 38.246 45.5177 38.2134 45.4434C38.1808 45.369 38.1645 45.2122 38.1645 44.9727V43.6185H37.875V43.3089H38.1645V42.7268L38.5559 42.4873V43.3089H38.9514V43.6185H38.5559V44.9933C38.5559 45.109 38.5641 45.1791 38.5763 45.2122C38.5885 45.2452 38.613 45.27 38.6456 45.2906C38.6782 45.3112 38.7231 45.3195 38.7802 45.3195C38.825 45.3236 38.8862 45.3195 38.9555 45.3071Z" fill="white"/>
<path d="M39.3359 42.8709V42.4126H39.7314V42.8709H39.3359ZM39.3359 45.6659V43.3126H39.7314V45.6659H39.3359Z" fill="white"/>
<path d="M40.4444 45.6659V43.6181H40.0938V43.3085H40.4444V43.0814C40.4444 42.8461 40.4933 42.6685 40.5953 42.5447C40.6972 42.4208 40.8521 42.3589 41.0642 42.3589C41.2069 42.3589 41.3414 42.3754 41.4638 42.4084L41.4026 42.747C41.3251 42.7346 41.2558 42.7263 41.1906 42.7263C41.056 42.7263 40.9622 42.7552 40.9133 42.8089C40.8644 42.8626 40.8399 42.9782 40.8399 43.1557V43.3085H41.2925V43.6181H40.8399V45.6659H40.4444V45.6659ZM41.5861 42.8708V42.4126H41.9816V42.8708H41.5861ZM41.5861 45.6659V43.3126H41.9816V45.6659H41.5861Z" fill="white"/>
<path d="M44.0922 44.8031L44.4796 44.8526C44.4388 45.1251 44.3287 45.3357 44.1534 45.4884C43.9781 45.6412 43.766 45.7196 43.5092 45.7196C43.1911 45.7196 42.9343 45.6164 42.7426 45.4017C42.551 45.1912 42.4531 44.8898 42.4531 44.4976C42.4531 44.2416 42.4939 44.0187 42.5795 43.8288C42.6652 43.6388 42.7875 43.4943 42.9587 43.3994C43.13 43.3044 43.3135 43.2549 43.5132 43.2549C43.766 43.2549 43.974 43.3209 44.133 43.4489C44.292 43.5769 44.398 43.7627 44.4429 43.998L44.0596 44.06C44.0229 43.9031 43.9577 43.7833 43.8639 43.7008C43.7701 43.6223 43.66 43.581 43.5296 43.581C43.3298 43.581 43.1707 43.6512 43.0444 43.7957C42.922 43.9402 42.8568 44.1673 42.8568 44.4811C42.8568 44.799 42.9179 45.026 43.0362 45.1705C43.1544 45.315 43.3135 45.3852 43.5051 45.3852C43.66 45.3852 43.7905 45.3357 43.8924 45.2407C43.9985 45.1499 44.0637 45.0013 44.0922 44.8031Z" fill="white"/>
<path d="M47.5848 45.3728C47.438 45.4967 47.2994 45.5875 47.1648 45.6371C47.0302 45.6866 46.8835 45.7155 46.7285 45.7155C46.4716 45.7155 46.2759 45.6536 46.1414 45.5256C46.0027 45.3976 45.9375 45.2366 45.9375 45.0426C45.9375 44.927 45.962 44.8237 46.015 44.7247C46.068 44.6297 46.1332 44.5513 46.2188 44.4935C46.3045 44.4357 46.3982 44.3902 46.5043 44.3613C46.5817 44.3407 46.7 44.3201 46.8549 44.3035C47.173 44.2664 47.4094 44.221 47.5562 44.1673C47.5562 44.1136 47.5603 44.0765 47.5603 44.0641C47.5603 43.9031 47.5236 43.7875 47.4502 43.7214C47.3483 43.6306 47.2015 43.5852 47.0017 43.5852C46.8182 43.5852 46.6796 43.6182 46.5899 43.6843C46.5002 43.7503 46.4349 43.8659 46.3942 44.0352L46.0068 43.9815C46.0435 43.8122 46.1006 43.6801 46.1781 43.5769C46.2555 43.4737 46.3738 43.3953 46.5246 43.3375C46.6755 43.2838 46.8508 43.2549 47.0506 43.2549C47.2504 43.2549 47.4094 43.2797 47.5358 43.3251C47.6622 43.3705 47.7519 43.4324 47.809 43.5026C47.8661 43.5728 47.9069 43.6636 47.9313 43.7751C47.9436 43.8411 47.9517 43.965 47.9517 44.1425V44.6751C47.9517 45.0467 47.9599 45.282 47.9762 45.3811C47.9925 45.4802 48.0251 45.5751 48.0741 45.6618H47.6622C47.6215 45.5834 47.597 45.4843 47.5848 45.3728ZM47.5522 44.4811C47.4094 44.5389 47.1933 44.5925 46.9079 44.6338C46.7448 44.6586 46.6307 44.6834 46.5654 44.7123C46.5002 44.7412 46.4472 44.7866 46.4105 44.8403C46.3738 44.8939 46.3575 44.96 46.3575 45.0302C46.3575 45.1375 46.3982 45.2242 46.4757 45.2944C46.5532 45.3646 46.6714 45.4017 46.8264 45.4017C46.9772 45.4017 47.1118 45.3687 47.23 45.3027C47.3483 45.2366 47.4339 45.1416 47.491 45.026C47.5318 44.9352 47.5562 44.8031 47.5562 44.6256V44.4811H47.5522Z" fill="white"/>
<path d="M48.5625 45.6662V43.313H48.9172V43.6474C49.0885 43.3873 49.3331 43.2593 49.6593 43.2593C49.798 43.2593 49.9284 43.284 50.0467 43.3377C50.1649 43.3873 50.2505 43.4574 50.3117 43.54C50.3688 43.6226 50.4096 43.7217 50.434 43.8331C50.4503 43.9075 50.4544 44.0355 50.4544 44.2212V45.6704H50.0589V44.2378C50.0589 44.0767 50.0426 43.9529 50.0141 43.8744C49.9855 43.796 49.9284 43.7299 49.851 43.6804C49.7735 43.6309 49.6797 43.6102 49.5778 43.6102C49.4106 43.6102 49.2638 43.6639 49.1415 43.7712C49.0192 43.8786 48.958 44.085 48.958 44.3864V45.6745H48.5625V45.6662Z" fill="white"/>
<path d="M52.5654 45.6659V45.3687C52.4186 45.604 52.2025 45.7196 51.913 45.7196C51.7295 45.7196 51.5583 45.67 51.4033 45.5627C51.2484 45.4595 51.1261 45.315 51.0405 45.1292C50.9548 44.9434 50.9141 44.7287 50.9141 44.4893C50.9141 44.2539 50.9508 44.0393 51.0282 43.8493C51.1057 43.6594 51.2199 43.5108 51.3748 43.4076C51.5297 43.3044 51.701 43.2548 51.8926 43.2548C52.0313 43.2548 52.1577 43.2837 52.2678 43.3457C52.3778 43.4035 52.4676 43.4819 52.5369 43.581V42.4126H52.9283V45.6618H52.5654V45.6659ZM51.3218 44.4893C51.3218 44.7907 51.383 45.0177 51.5094 45.1664C51.6358 45.315 51.7825 45.3893 51.9538 45.3893C52.125 45.3893 52.2718 45.3191 52.3942 45.1746C52.5124 45.0301 52.5736 44.8154 52.5736 44.5223C52.5736 44.2003 52.5124 43.9649 52.3901 43.8122C52.2678 43.6594 52.1169 43.5851 51.9375 43.5851C51.7622 43.5851 51.6154 43.6594 51.4971 43.8039C51.3789 43.9484 51.3218 44.1755 51.3218 44.4893Z" fill="white"/>
<path d="M13.7576 49.4815L14.1816 49.5888C14.0919 49.9439 13.9329 50.2122 13.7005 50.398C13.4681 50.5838 13.1867 50.6746 12.8524 50.6746C12.5058 50.6746 12.2245 50.6044 12.0084 50.4599C11.7923 50.3154 11.6251 50.109 11.515 49.8407C11.4008 49.5682 11.3438 49.2792 11.3438 48.9695C11.3438 48.631 11.409 48.3337 11.5354 48.0819C11.6618 47.83 11.8453 47.6401 12.0818 47.508C12.3182 47.3759 12.5751 47.314 12.8605 47.314C13.1827 47.314 13.4518 47.3965 13.6719 47.5617C13.8921 47.7268 14.043 47.958 14.1286 48.2594L13.7086 48.3585C13.6352 48.1232 13.5252 47.9498 13.3865 47.8424C13.2479 47.7351 13.0685 47.6814 12.8524 47.6814C12.6077 47.6814 12.3998 47.7433 12.2326 47.8631C12.0654 47.9828 11.9513 48.1438 11.882 48.3461C11.8167 48.5484 11.78 48.7548 11.78 48.9695C11.78 49.2461 11.8208 49.4856 11.8983 49.692C11.9757 49.8985 12.1021 50.0512 12.2693 50.1544C12.4365 50.2576 12.62 50.3072 12.8157 50.3072C13.0522 50.3072 13.2561 50.237 13.4191 50.1008C13.5904 49.9604 13.7005 49.754 13.7576 49.4815Z" fill="white"/>
<path d="M16.1815 50.6206V50.2738C16.0021 50.538 15.7534 50.6743 15.4435 50.6743C15.3049 50.6743 15.1785 50.6495 15.0603 50.5958C14.942 50.5422 14.8523 50.4761 14.7952 50.3935C14.7381 50.311 14.6974 50.216 14.6729 50.0963C14.6566 50.0178 14.6484 49.894 14.6484 49.7247V48.2673H15.0439V49.5719C15.0439 49.7825 15.0521 49.9229 15.0684 49.9931C15.0929 50.0963 15.1459 50.1788 15.2274 50.2408C15.309 50.2986 15.4068 50.3316 15.5251 50.3316C15.6433 50.3316 15.7534 50.2986 15.8594 50.2408C15.9654 50.183 16.0348 50.0963 16.0796 49.9889C16.1245 49.8816 16.1448 49.7288 16.1448 49.5265V48.2632H16.5404V50.6165H16.1815V50.6206Z" fill="white"/>
<path d="M17.1406 50.6208V47.3716H17.5361V50.6208H17.1406Z" fill="white"/>
<path d="M19.0102 50.2617L19.0673 50.6126C18.9572 50.6374 18.8553 50.6498 18.7696 50.6498C18.6269 50.6498 18.5168 50.625 18.4353 50.5796C18.3578 50.5342 18.3007 50.4723 18.2681 50.398C18.2355 50.3236 18.2192 50.1668 18.2192 49.9273V48.5731H17.9297V48.2635H18.2192V47.6813L18.6106 47.4419V48.2635H19.0061V48.5731H18.6147V49.9479C18.6147 50.0635 18.6228 50.1337 18.6351 50.1668C18.6473 50.1998 18.6718 50.2246 18.7044 50.2452C18.737 50.2658 18.7819 50.2741 18.8389 50.2741C18.8797 50.2782 18.9368 50.2741 19.0102 50.2617Z" fill="white"/>
<path d="M20.9159 50.6206V50.2738C20.7365 50.538 20.4878 50.6743 20.1779 50.6743C20.0393 50.6743 19.9129 50.6495 19.7946 50.5958C19.6764 50.5422 19.5867 50.4761 19.5296 50.3935C19.4725 50.311 19.4317 50.216 19.4073 50.0963C19.391 50.0178 19.3828 49.894 19.3828 49.7247V48.2673H19.7783V49.5719C19.7783 49.7825 19.7865 49.9229 19.8028 49.9931C19.8272 50.0963 19.8803 50.1788 19.9618 50.2408C20.0434 50.2986 20.1412 50.3316 20.2595 50.3316C20.3777 50.3316 20.4878 50.2986 20.5938 50.2408C20.6998 50.183 20.7691 50.0963 20.814 49.9889C20.8588 49.8816 20.8792 49.7288 20.8792 49.5265V48.2632H21.2747V50.6165H20.9159V50.6206Z" fill="white"/>
<path d="M21.8828 50.6208V48.2675H22.2375V48.6226C22.3272 48.4575 22.4129 48.346 22.4863 48.2923C22.5637 48.2386 22.6494 48.2139 22.7391 48.2139C22.8736 48.2139 23.0082 48.2552 23.1427 48.3419L23.0082 48.7134C22.9103 48.6556 22.8165 48.6267 22.7187 48.6267C22.6331 48.6267 22.5556 48.6515 22.4863 48.7052C22.417 48.7588 22.368 48.829 22.3395 48.924C22.2946 49.0644 22.2742 49.2212 22.2742 49.3905V50.625H21.8828V50.6208Z" fill="white"/>
<path d="M24.8973 50.3274C24.7505 50.4513 24.6119 50.5421 24.4773 50.5917C24.3427 50.6412 24.196 50.6701 24.041 50.6701C23.7841 50.6701 23.5884 50.6082 23.4539 50.4802C23.3152 50.3522 23.25 50.1912 23.25 49.9971C23.25 49.8815 23.2745 49.7783 23.3275 49.6792C23.3805 49.5843 23.4457 49.5058 23.5313 49.448C23.617 49.3902 23.7107 49.3448 23.8168 49.3159C23.8942 49.2953 24.0125 49.2746 24.1674 49.2581C24.4855 49.221 24.7219 49.1756 24.8687 49.1219C24.8687 49.0682 24.8728 49.0311 24.8728 49.0187C24.8728 48.8577 24.8361 48.7421 24.7627 48.676C24.6608 48.5852 24.514 48.5398 24.3142 48.5398C24.1307 48.5398 23.9921 48.5728 23.9024 48.6388C23.8127 48.7049 23.7474 48.8205 23.7067 48.9898L23.3193 48.9361C23.356 48.7668 23.4131 48.6347 23.4906 48.5315C23.568 48.4283 23.6863 48.3498 23.8371 48.292C23.988 48.2384 24.1633 48.2095 24.3631 48.2095C24.5629 48.2095 24.7219 48.2342 24.8483 48.2797C24.9747 48.3251 25.0644 48.387 25.1215 48.4572C25.1786 48.5274 25.2194 48.6182 25.2438 48.7297C25.2561 48.7957 25.2642 48.9196 25.2642 49.0971V49.6297C25.2642 50.0013 25.2724 50.2366 25.2887 50.3357C25.305 50.4348 25.3376 50.5297 25.3866 50.6164H24.9747C24.934 50.538 24.9054 50.4389 24.8973 50.3274ZM24.8647 49.4357C24.7219 49.4935 24.5058 49.5471 24.2204 49.5884C24.0573 49.6132 23.9432 49.638 23.8779 49.6669C23.8127 49.6958 23.7597 49.7412 23.723 49.7948C23.6863 49.8485 23.67 49.9146 23.67 49.9848C23.67 50.0921 23.7107 50.1788 23.7882 50.249C23.8657 50.3192 23.9839 50.3563 24.1389 50.3563C24.2897 50.3563 24.4243 50.3233 24.5425 50.2572C24.6608 50.1912 24.7464 50.0962 24.8035 49.9806C24.8443 49.8898 24.8687 49.7577 24.8687 49.5802V49.4357H24.8647Z" fill="white"/>
<path d="M25.8672 50.6208V47.3716H26.2627V50.6208H25.8672Z" fill="white"/>
<path d="M28.0391 49.0353C28.0391 48.4945 28.1818 48.0734 28.4672 47.7678C28.7526 47.4623 29.1236 47.3096 29.5762 47.3096C29.8739 47.3096 30.1389 47.3798 30.3795 47.5243C30.616 47.6688 30.7995 47.8669 30.9218 48.1229C31.0482 48.3789 31.1093 48.672 31.1093 48.994C31.1093 49.3243 31.0441 49.6174 30.9136 49.8775C30.7832 50.1376 30.5956 50.3358 30.355 50.4679C30.1145 50.6 29.8535 50.6702 29.5762 50.6702C29.2745 50.6702 29.0054 50.5959 28.7648 50.4473C28.5284 50.2987 28.3449 50.0964 28.2225 49.8404C28.1002 49.5844 28.0391 49.3202 28.0391 49.0353ZM28.4753 49.0436C28.4753 49.4358 28.5814 49.7454 28.7893 49.9684C28.9973 50.1954 29.2582 50.3069 29.5722 50.3069C29.8902 50.3069 30.1552 50.1913 30.3632 49.9642C30.5711 49.7372 30.6731 49.4151 30.6731 48.994C30.6731 48.7298 30.6282 48.4986 30.5426 48.3004C30.4529 48.1023 30.3265 47.9495 30.1552 47.8422C29.984 47.7348 29.7923 47.677 29.5844 47.677C29.2827 47.677 29.0258 47.7802 28.8097 47.9908C28.5854 48.2055 28.4753 48.5523 28.4753 49.0436Z" fill="white"/>
<path d="M31.6016 50.6208V48.2675H31.9563V48.6226C32.046 48.4575 32.1316 48.346 32.205 48.2923C32.2825 48.2386 32.3681 48.2139 32.4578 48.2139C32.5924 48.2139 32.7269 48.2552 32.8615 48.3419L32.7269 48.7134C32.6291 48.6556 32.5353 48.6267 32.4374 48.6267C32.3518 48.6267 32.2743 48.6515 32.205 48.7052C32.1357 48.7588 32.0868 48.829 32.0582 48.924C32.0134 49.0644 31.993 49.2212 31.993 49.3905V50.625H31.6016V50.6208Z" fill="white"/>
<path d="M33.0306 50.8148L33.4139 50.8726C33.4302 50.9924 33.475 51.0791 33.5484 51.1327C33.6463 51.207 33.7808 51.2442 33.948 51.2442C34.1315 51.2442 34.2701 51.207 34.3721 51.1327C34.474 51.0584 34.5392 50.9552 34.5719 50.8231C34.5922 50.7405 34.6004 50.5712 34.6004 50.3111C34.4291 50.5176 34.213 50.6208 33.9562 50.6208C33.6381 50.6208 33.3894 50.5052 33.2141 50.2699C33.0388 50.0345 32.9531 49.7579 32.9531 49.4276C32.9531 49.2047 32.9939 48.9941 33.0754 48.8042C33.157 48.6143 33.2712 48.4657 33.4261 48.3625C33.577 48.2592 33.7564 48.2056 33.9643 48.2056C34.2375 48.2056 34.4658 48.317 34.6452 48.5441V48.2592H35.0081V50.2946C35.0081 50.6621 34.9714 50.9222 34.898 51.0749C34.8247 51.2277 34.7064 51.3474 34.5474 51.4382C34.3884 51.5249 34.1927 51.5704 33.9562 51.5704C33.6789 51.5704 33.4546 51.5084 33.2834 51.3804C33.1081 51.2607 33.0265 51.0708 33.0306 50.8148ZM33.3568 49.3987C33.3568 49.7084 33.4179 49.9313 33.5403 50.0758C33.6626 50.2203 33.8135 50.2905 33.9969 50.2905C34.1763 50.2905 34.3313 50.2203 34.4536 50.0799C34.5759 49.9396 34.6371 49.7166 34.6371 49.4152C34.6371 49.1262 34.5759 48.9116 34.4495 48.7629C34.3231 48.6184 34.1723 48.5441 33.9929 48.5441C33.8175 48.5441 33.6707 48.6143 33.5443 48.7588C33.4179 48.9033 33.3568 49.118 33.3568 49.3987Z" fill="white"/>
<path d="M37.116 50.3274C36.9692 50.4513 36.8306 50.5421 36.696 50.5917C36.5615 50.6412 36.4147 50.6701 36.2598 50.6701C36.0029 50.6701 35.8072 50.6082 35.6726 50.4802C35.534 50.3522 35.4688 50.1912 35.4688 49.9971C35.4688 49.8815 35.4932 49.7783 35.5462 49.6792C35.5992 49.5843 35.6645 49.5058 35.7501 49.448C35.8357 49.3902 35.9295 49.3448 36.0355 49.3159C36.113 49.2953 36.2312 49.2746 36.3862 49.2581C36.7042 49.221 36.9407 49.1756 37.0875 49.1219C37.0875 49.0682 37.0916 49.0311 37.0916 49.0187C37.0916 48.8577 37.0549 48.7421 36.9815 48.676C36.8795 48.5852 36.7327 48.5398 36.533 48.5398C36.3495 48.5398 36.2108 48.5728 36.1211 48.6388C36.0314 48.7049 35.9662 48.8205 35.9254 48.9898L35.5381 48.9361C35.5748 48.7668 35.6318 48.6347 35.7093 48.5315C35.7868 48.4283 35.905 48.3498 36.0559 48.292C36.2068 48.2384 36.3821 48.2095 36.5819 48.2095C36.7817 48.2095 36.9407 48.2342 37.0671 48.2797C37.1935 48.3251 37.2832 48.387 37.3403 48.4572C37.3974 48.5274 37.4381 48.6182 37.4626 48.7297C37.4748 48.7957 37.483 48.9196 37.483 49.0971V49.6297C37.483 50.0013 37.4911 50.2366 37.5075 50.3357C37.5238 50.4348 37.5564 50.5297 37.6053 50.6164H37.1935C37.1527 50.538 37.1283 50.4389 37.116 50.3274ZM37.0834 49.4357C36.9407 49.4935 36.7246 49.5471 36.4392 49.5884C36.2761 49.6132 36.1619 49.638 36.0967 49.6669C36.0314 49.6958 35.9784 49.7412 35.9417 49.7948C35.905 49.8485 35.8887 49.9146 35.8887 49.9848C35.8887 50.0921 35.9295 50.1788 36.007 50.249C36.0844 50.3192 36.2027 50.3563 36.3576 50.3563C36.5085 50.3563 36.643 50.3233 36.7613 50.2572C36.8795 50.1912 36.9652 50.0962 37.0222 49.9806C37.063 49.8898 37.0875 49.7577 37.0875 49.5802V49.4357H37.0834Z" fill="white"/>
<path d="M38.0938 50.6208V48.2675H38.4485V48.602C38.6197 48.3419 38.8644 48.2139 39.1906 48.2139C39.3292 48.2139 39.4597 48.2386 39.5779 48.2923C39.6962 48.3419 39.7818 48.412 39.843 48.4946C39.9 48.5772 39.9408 48.6763 39.9653 48.7877C39.9816 48.8621 39.9857 48.99 39.9857 49.1758V50.625H39.5902V49.1923C39.5902 49.0313 39.5738 48.9075 39.5453 48.829C39.5168 48.7506 39.4597 48.6845 39.3822 48.635C39.3047 48.5854 39.211 48.5648 39.109 48.5648C38.9418 48.5648 38.7951 48.6185 38.6727 48.7258C38.5504 48.8332 38.4893 49.0396 38.4893 49.341V50.6291H38.0938V50.6208Z" fill="white"/>
<path d="M40.5859 47.8299V47.3716H40.9814V47.8299H40.5859ZM40.5859 50.6208V48.2675H40.9814V50.6208H40.5859Z" fill="white"/>
<path d="M41.375 50.6209V50.2988L42.8551 48.5772C42.6879 48.5855 42.5371 48.5896 42.4107 48.5896H41.4606V48.2676H43.3607V48.5318L42.1008 50.0263L41.8561 50.2988C42.0315 50.2865 42.1986 50.2782 42.3536 50.2782H43.43V50.6209H41.375Z" fill="white"/>
<path d="M45.3426 50.3274C45.1958 50.4513 45.0572 50.5421 44.9226 50.5917C44.7881 50.6412 44.6413 50.6701 44.4863 50.6701C44.2295 50.6701 44.0337 50.6082 43.8992 50.4802C43.7606 50.3522 43.6953 50.1912 43.6953 49.9971C43.6953 49.8815 43.7198 49.7783 43.7728 49.6792C43.8258 49.5843 43.891 49.5058 43.9767 49.448C44.0623 49.3902 44.1561 49.3448 44.2621 49.3159C44.3395 49.2953 44.4578 49.2746 44.6127 49.2581C44.9308 49.221 45.1673 49.1756 45.314 49.1219C45.314 49.0682 45.3181 49.0311 45.3181 49.0187C45.3181 48.8577 45.2814 48.7421 45.208 48.676C45.1061 48.5852 44.9593 48.5398 44.7595 48.5398C44.576 48.5398 44.4374 48.5728 44.3477 48.6388C44.258 48.7049 44.1928 48.8205 44.152 48.9898L43.7646 48.9361C43.8013 48.7668 43.8584 48.6347 43.9359 48.5315C44.0134 48.4283 44.1316 48.3498 44.2825 48.292C44.4333 48.2384 44.6087 48.2095 44.8084 48.2095C45.0082 48.2095 45.1673 48.2342 45.2937 48.2797C45.4201 48.3251 45.5098 48.387 45.5668 48.4572C45.6239 48.5274 45.6647 48.6182 45.6892 48.7297C45.7014 48.7957 45.7095 48.9196 45.7095 49.0971V49.6297C45.7095 50.0013 45.7177 50.2366 45.734 50.3357C45.7503 50.4348 45.7829 50.5297 45.8319 50.6164H45.4201C45.3793 50.538 45.3548 50.4389 45.3426 50.3274ZM45.31 49.4357C45.1673 49.4935 44.9512 49.5471 44.6657 49.5884C44.5026 49.6132 44.3885 49.638 44.3232 49.6669C44.258 49.6958 44.205 49.7412 44.1683 49.7948C44.1316 49.8485 44.1153 49.9146 44.1153 49.9848C44.1153 50.0921 44.1561 50.1788 44.2335 50.249C44.311 50.3192 44.4292 50.3563 44.5842 50.3563C44.7351 50.3563 44.8696 50.3233 44.9878 50.2572C45.1061 50.1912 45.1917 50.0962 45.2488 49.9806C45.2896 49.8898 45.314 49.7577 45.314 49.5802V49.4357H45.31Z" fill="white"/>
<path d="M47.1821 50.2617L47.2392 50.6126C47.1291 50.6374 47.0271 50.6498 46.9415 50.6498C46.7988 50.6498 46.6887 50.625 46.6072 50.5796C46.5297 50.5342 46.4726 50.4723 46.44 50.398C46.4074 50.3236 46.3911 50.1668 46.3911 49.9273V48.5731H46.1016V48.2635H46.3911V47.6813L46.7825 47.4419V48.2635H47.178V48.5731H46.7825V49.9479C46.7825 50.0635 46.7906 50.1337 46.8029 50.1668C46.8151 50.1998 46.8396 50.2246 46.8722 50.2452C46.9048 50.2658 46.9497 50.2741 47.0067 50.2741C47.0516 50.2782 47.1087 50.2741 47.1821 50.2617Z" fill="white"/>
<path d="M47.5703 47.8299V47.3716H47.9658V47.8299H47.5703ZM47.5703 50.6208V48.2675H47.9658V50.6208H47.5703Z" fill="white"/>
<path d="M48.4141 49.4442C48.4141 49.0066 48.5323 48.6845 48.7729 48.474C48.9727 48.3006 49.2173 48.2139 49.5027 48.2139C49.8208 48.2139 50.0858 48.3212 50.2856 48.5318C50.4854 48.7423 50.5914 49.0355 50.5914 49.4112C50.5914 49.7125 50.5465 49.952 50.4568 50.1254C50.3671 50.2988 50.2367 50.435 50.0654 50.53C49.8942 50.625 49.7066 50.6745 49.5027 50.6745C49.1765 50.6745 48.9156 50.5672 48.7117 50.3566C48.5119 50.146 48.4141 49.8405 48.4141 49.4442ZM48.8177 49.4442C48.8177 49.7456 48.883 49.9726 49.0134 50.1213C49.1439 50.2699 49.307 50.3442 49.5027 50.3442C49.6984 50.3442 49.8615 50.2699 49.992 50.1171C50.1225 49.9644 50.1877 49.7373 50.1877 49.4277C50.1877 49.1345 50.1225 48.9157 49.992 48.7671C49.8615 48.6185 49.6984 48.54 49.5027 48.54C49.307 48.54 49.1439 48.6143 49.0134 48.763C48.883 48.9116 48.8177 49.1428 48.8177 49.4442Z" fill="white"/>
<path d="M51.0547 50.6208V48.2675H51.4094V48.602C51.5807 48.3419 51.8253 48.2139 52.1515 48.2139C52.2901 48.2139 52.4206 48.2386 52.5389 48.2923C52.6571 48.3419 52.7427 48.412 52.8039 48.4946C52.861 48.5772 52.9017 48.6763 52.9262 48.7877C52.9425 48.8621 52.9466 48.99 52.9466 49.1758V50.625H52.5511V49.1923C52.5511 49.0313 52.5348 48.9075 52.5062 48.829C52.4777 48.7506 52.4206 48.6845 52.3431 48.635C52.2657 48.5854 52.1719 48.5648 52.07 48.5648C51.9028 48.5648 51.756 48.6185 51.6337 48.7258C51.5114 48.8332 51.4502 49.0396 51.4502 49.341V50.6291H51.0547V50.6208Z" fill="white"/>
<path d="M49.9704 26.8896H21.7344V28.0869H49.9704V26.8896Z" fill="white"/>
<path d="M51.5084 28.9287H20.1328V30.126H51.5084V28.9287Z" fill="white"/>
<path d="M53.0491 30.9683H18.6562V32.1655H53.0491V30.9683Z" fill="white"/>
<path d="M49.9704 11.7788H21.7344V12.9761H49.9704V11.7788Z" fill="white"/>
<path d="M27.4488 11.0066L35.8523 8.45922L44.0805 11.0066H47.5137L35.8523 7.34863L24.0156 11.0066H27.4488Z" fill="white"/>
<path d="M21.7344 11.0068L35.7647 6.65939L49.9704 11.0068V9.71867L35.8503 5.31348L21.7344 9.71867V11.0068Z" fill="white"/>
<path d="M23.3906 25.3372C23.3906 25.3372 23.3906 26.2373 24.3977 26.2373C25.4049 26.2373 25.3437 25.3372 25.3437 25.3372V13.707H24.6016V25.3661C24.6016 25.3661 24.6016 25.5767 24.3366 25.5767C24.0716 25.5767 24.1286 25.3083 24.1286 25.3083V13.707H23.3906V25.3372Z" fill="white"/>
<path d="M28.0391 26.2373H28.6303V18.7067L29.3683 26.2373H29.9921V13.707H29.3683V20.4036L28.6303 13.707H28.0391V26.2373Z" fill="white"/>
<path d="M32.7422 26.2373H34.6382V25.5767H33.5699V19.9123H34.3691V19.2228H33.5699V14.3387H34.3691V13.707H32.7422V26.2373Z" fill="white"/>
<path d="M43.6356 17.4267V14.611C43.6356 14.611 43.6071 13.7109 42.657 13.7109C41.7111 13.7109 41.7111 14.611 41.7111 14.611V25.3411C41.7111 25.3411 41.6784 26.2412 42.657 26.2412C43.6356 26.2412 43.6356 25.3411 43.6356 25.3411V22.1952H42.8976V25.3411C42.8976 25.3411 42.8976 25.5806 42.6611 25.5806C42.4409 25.5806 42.3961 25.3411 42.3961 25.3411V14.6068C42.3961 14.6068 42.3961 14.3385 42.6611 14.3385C42.8976 14.3385 42.8976 14.6068 42.8976 14.6068V17.4225H43.6356V17.4267Z" fill="white"/>
<path d="M48.3424 14.6071C48.3424 14.6071 48.4035 13.707 47.3638 13.707C46.3281 13.707 46.3281 14.6071 46.3281 14.6071V25.3372C46.3281 25.3372 46.3281 26.2373 47.3026 26.2373C48.3383 26.2373 48.3383 25.3372 48.3383 25.3372V14.6071H48.3424ZM47.6329 25.3372C47.6329 25.3372 47.6614 25.5767 47.3679 25.5767C47.0702 25.5767 47.0702 25.3372 47.0702 25.3372V14.6071C47.0702 14.6071 47.0702 14.3387 47.3352 14.3387C47.6329 14.3387 47.6329 14.6071 47.6329 14.6071V25.3372Z" fill="white"/>
<path d="M38.2165 25.3369C38.2165 25.3369 38.2165 25.5764 38.0249 25.5599C37.8332 25.5433 37.8332 25.3369 37.8332 25.3369V22.1909H37.0626V25.3369C37.0626 25.3369 37.034 26.2369 38.0085 26.2369C38.9871 26.2369 38.9871 25.3369 38.9871 25.3369C38.9871 25.3369 38.9871 23.2396 38.9871 22.6286C38.983 21.1588 37.8332 18.3555 37.8332 17.4266V14.6067C37.8332 14.6067 37.8047 14.3384 38.0085 14.3384C38.2165 14.3384 38.2165 14.6067 38.2165 14.6067V17.4224H38.9871V14.6067C38.9871 14.6067 39.0157 13.6778 38.0412 13.7067C37.0626 13.7356 37.0626 14.6067 37.0626 14.6067V17.0054C37.0626 18.5784 38.2165 21.2331 38.2165 22.4469V25.3369V25.3369Z" fill="white"/>
<path d="M58.6498 0.487172C58.6498 0.755529 58.4337 0.974344 58.1686 0.974344C57.9036 0.974344 57.6875 0.755529 57.6875 0.487172C57.6875 0.218814 57.9036 0 58.1686 0C58.4337 0 58.6498 0.218814 58.6498 0.487172Z" fill="white"/>
<path d="M58.6498 2.22106C58.6498 2.48942 58.4337 2.70823 58.1686 2.70823C57.9036 2.70823 57.6875 2.48942 57.6875 2.22106C57.6875 1.9527 57.9036 1.73389 58.1686 1.73389C58.4337 1.73389 58.6498 1.94857 58.6498 2.22106Z" fill="white"/>
<path d="M58.6498 4.09557C58.6498 4.36393 58.4337 4.58274 58.1686 4.58274C57.9036 4.58274 57.6875 4.36393 57.6875 4.09557C57.6875 3.82721 57.9036 3.6084 58.1686 3.6084C58.4337 3.6084 58.6498 3.82721 58.6498 4.09557Z" fill="white"/>
<path d="M58.6498 5.97399C58.6498 6.24235 58.4337 6.46116 58.1686 6.46116C57.9036 6.46116 57.6875 6.24235 57.6875 5.97399C57.6875 5.70563 57.9036 5.48682 58.1686 5.48682C58.4337 5.48682 58.6498 5.70563 58.6498 5.97399Z" fill="white"/>
<path d="M58.6498 7.99694C58.6498 8.2653 58.4337 8.48411 58.1686 8.48411C57.9036 8.48411 57.6875 8.2653 57.6875 7.99694C57.6875 7.72858 57.9036 7.50977 58.1686 7.50977C58.4337 7.50977 58.6498 7.72858 58.6498 7.99694Z" fill="white"/>
<path d="M58.6498 10.0199C58.6498 10.2882 58.4337 10.5071 58.1686 10.5071C57.9036 10.5071 57.6875 10.2882 57.6875 10.0199C57.6875 9.75153 57.9036 9.53271 58.1686 9.53271C58.4337 9.53271 58.6498 9.75153 58.6498 10.0199Z" fill="white"/>
<path d="M58.6498 12.1009C58.6498 12.3693 58.4337 12.5881 58.1686 12.5881C57.9036 12.5881 57.6875 12.3693 57.6875 12.1009C57.6875 11.8326 57.9036 11.6138 58.1686 11.6138C58.4337 11.6138 58.6498 11.8326 58.6498 12.1009Z" fill="white"/>
<path d="M58.6498 14.1815C58.6498 14.4499 58.4337 14.6687 58.1686 14.6687C57.9036 14.6687 57.6875 14.4499 57.6875 14.1815C57.6875 13.9132 57.9036 13.6943 58.1686 13.6943C58.4337 13.6943 58.6498 13.9132 58.6498 14.1815Z" fill="white"/>
<path d="M58.6498 16.4359C58.6498 16.7043 58.4337 16.9231 58.1686 16.9231C57.9036 16.9231 57.6875 16.7043 57.6875 16.4359C57.6875 16.1675 57.9036 15.9487 58.1686 15.9487C58.4337 15.9487 58.6498 16.1675 58.6498 16.4359Z" fill="white"/>
<path d="M58.6498 18.6903C58.6498 18.9587 58.4337 19.1775 58.1686 19.1775C57.9036 19.1775 57.6875 18.9587 57.6875 18.6903C57.6875 18.4219 57.9036 18.2031 58.1686 18.2031C58.4337 18.2031 58.6498 18.4219 58.6498 18.6903Z" fill="white"/>
<path d="M58.6498 21.0599C58.6498 21.3283 58.4337 21.5471 58.1686 21.5471C57.9036 21.5471 57.6875 21.3283 57.6875 21.0599C57.6875 20.7916 57.9036 20.5728 58.1686 20.5728C58.4337 20.5728 58.6498 20.7916 58.6498 21.0599Z" fill="white"/>
<path d="M58.6498 23.4877C58.6498 23.756 58.4337 23.9748 58.1686 23.9748C57.9036 23.9748 57.6875 23.756 57.6875 23.4877C57.6875 23.2193 57.9036 23.0005 58.1686 23.0005C58.4337 23.0005 58.6498 23.2193 58.6498 23.4877Z" fill="white"/>
<path d="M58.6498 26.0306C58.6498 26.299 58.4337 26.5178 58.1686 26.5178C57.9036 26.5178 57.6875 26.299 57.6875 26.0306C57.6875 25.7623 57.9036 25.5435 58.1686 25.5435C58.4337 25.5435 58.6498 25.7623 58.6498 26.0306Z" fill="white"/>
<path d="M58.6498 28.9208C58.6498 29.1891 58.4337 29.4079 58.1686 29.4079C57.9036 29.4079 57.6875 29.1891 57.6875 28.9208C57.6875 28.6524 57.9036 28.4336 58.1686 28.4336C58.4337 28.4377 58.6498 28.6524 58.6498 28.9208Z" fill="white"/>
<path d="M58.6498 32.0995C58.6498 32.3678 58.4337 32.5866 58.1686 32.5866C57.9036 32.5866 57.6875 32.3678 57.6875 32.0995C57.6875 31.8311 57.9036 31.6123 58.1686 31.6123C58.4337 31.6123 58.6498 31.8311 58.6498 32.0995Z" fill="white"/>
<path d="M58.6498 35.8568C58.6498 36.1252 58.4337 36.344 58.1686 36.344C57.9036 36.344 57.6875 36.1252 57.6875 35.8568C57.6875 35.5884 57.9036 35.3696 58.1686 35.3696C58.4337 35.3696 58.6498 35.5884 58.6498 35.8568Z" fill="white"/>
<path d="M58.6498 39.9027C58.6498 40.1711 58.4337 40.3899 58.1686 40.3899C57.9036 40.3899 57.6875 40.1711 57.6875 39.9027C57.6875 39.6343 57.9036 39.4155 58.1686 39.4155C58.4337 39.4155 58.6498 39.6343 58.6498 39.9027Z" fill="white"/>
<path d="M58.6498 44.5223C58.6498 44.7907 58.4337 45.0095 58.1686 45.0095C57.9036 45.0095 57.6875 44.7907 57.6875 44.5223C57.6875 44.254 57.9036 44.0352 58.1686 44.0352C58.4337 44.0352 58.6498 44.254 58.6498 44.5223Z" fill="white"/>
<path d="M58.6498 49.7367C58.6498 50.0051 58.4337 50.2239 58.1686 50.2239C57.9036 50.2239 57.6875 50.0051 57.6875 49.7367C57.6875 49.4684 57.9036 49.2496 58.1686 49.2496C58.4337 49.2454 58.6498 49.4643 58.6498 49.7367Z" fill="white"/>
<path d="M58.6498 55.517C58.6498 55.7854 58.4337 56.0042 58.1686 56.0042C57.9036 56.0042 57.6875 55.7854 57.6875 55.517C57.6875 55.2487 57.9036 55.0298 58.1686 55.0298C58.4337 55.0257 58.6498 55.2445 58.6498 55.517Z" fill="white"/>
</g>
<defs>
<clipPath id="clip0_628_67341">
<rect width="118" height="56" fill="white" transform="translate(1)"/>
</clipPath>
</defs>
</svg>
