<svg width="60" height="56" viewBox="0 0 60 56" fill="none" xmlns="http://www.w3.org/2000/svg">
<path d="M9.22656 43.8089H15.0411V42.9218H10.2269V39.5683H14.3309V38.6827H10.2269V35.4071H15.0411V34.52H9.22656V43.8089Z" fill="white"/>
<path d="M24.7734 35.4071H27.6172V43.8089H28.616V35.4071H31.4598V34.52H24.7734V35.4071Z" fill="white"/>
<path d="M39.5764 37.1033C39.5764 35.5 38.4326 34.52 36.8006 34.52H33.1484V43.8089H34.1488V39.6851H36.4607L38.5912 43.8089H39.7623L37.538 39.5952C38.7484 39.3465 39.5764 38.4609 39.5764 37.1033ZM34.1488 38.8131V35.4071H36.71C37.801 35.4071 38.5776 35.981 38.5776 37.1168C38.5776 38.2526 37.801 38.8131 36.71 38.8131H34.1488Z" fill="white"/>
<path d="M41.5078 43.8089H47.3223V42.9218H42.5081V39.5683H46.6121V38.6827H42.5081V35.4071H47.3223V34.52H41.5078V43.8089Z" fill="white"/>
<path d="M4.27596 35.328H4.46484C5.6359 35.328 6.43827 36.0727 6.68759 37.207H7.71359C7.39929 35.4584 6.14815 34.4409 4.46484 34.4409H4.27596C3.35422 34.4409 2.51256 34.7796 1.88094 35.4074C1 36.2825 1 37.1951 1 39.1655C1 41.1345 1 42.0485 1.88094 42.9221C2.51256 43.5484 3.35422 43.8871 4.27596 43.8871H4.46484C6.13606 43.8871 7.41138 42.8697 7.71359 41.121H6.71479C6.46547 42.2553 5.6359 43 4.46484 43H4.27596C3.65794 43 3.0656 42.7663 2.65762 42.3482C2.06529 41.7473 2.00031 41.109 2.00031 39.1655C2.00031 37.222 2.0668 36.5822 2.65762 35.9813C3.0656 35.5647 3.65794 35.328 4.27596 35.328Z" fill="white"/>
<path d="M22.0237 41.8444L17.4709 34.52H16.5234V43.8089H17.5238V36.459L22.0765 43.8089H23.024V34.52H22.0237V41.8444Z" fill="white"/>
<path d="M6.68666 31.7265C7.65977 30.7616 7.60689 29.1312 7.60689 27.8396C7.60689 26.5479 7.65977 25.1259 6.68666 24.1609C6.12153 23.599 5.29196 23.2993 4.31884 23.2993H1.10938V32.5897H4.31884C5.29347 32.5897 6.12153 32.2885 6.68666 31.7265ZM2.10969 31.7011V24.1864H4.1481C4.87189 24.1864 5.50351 24.3692 5.99006 24.8652C6.63528 25.5305 6.60808 26.7053 6.60808 27.8396C6.60808 28.9739 6.63528 30.357 5.99006 31.0223C5.50351 31.5183 4.87189 31.7011 4.1481 31.7011H2.10969Z" fill="white"/>
<path d="M9.22656 32.5897H15.0411V31.7011H10.2269V28.3476H14.3309V27.4605H10.2269V24.1864H15.0411V23.2993H9.22656V32.5897Z" fill="white"/>
<path d="M19.7914 31.7793C18.7397 31.7793 18.0159 31.5306 17.2392 30.7619L16.5547 31.4392C17.4356 32.3143 18.3574 32.6664 19.7642 32.6664C21.7104 32.6664 23.0008 31.6625 23.0008 30.0322C23.0008 29.262 22.7243 28.6221 22.2121 28.1921C21.8177 27.8519 21.3825 27.6706 20.5015 27.5388L19.4755 27.3814C18.989 27.3035 18.5024 27.1207 18.2123 26.8734C17.9222 26.6247 17.7907 26.2591 17.7907 25.8021C17.7907 24.7726 18.5145 24.0804 19.7642 24.0804C20.7509 24.0804 21.3689 24.3546 21.9476 24.876L22.5913 24.2362C21.789 23.5184 21.0002 23.2188 19.8019 23.2188C17.9464 23.2188 16.8025 24.2617 16.8025 25.841C16.8025 26.5842 17.0397 27.1582 17.5127 27.5762C17.9207 27.9283 18.4994 28.1621 19.2353 28.2805L20.3278 28.4498C21.0123 28.5547 21.248 28.6326 21.5517 28.8933C21.8539 29.1541 21.999 29.5721 21.999 30.0546C22.0005 31.1395 21.1589 31.7793 19.7914 31.7793Z" fill="white"/>
<path d="M25.7738 23.2993H24.7734V32.5897H25.7738V23.2993Z" fill="white"/>
<path d="M30.7964 32.6664H30.9853C32.6565 32.6664 33.9318 31.6489 34.234 29.9003C34.2612 29.683 34.2733 29.4492 34.2733 29.196V27.7215H30.9717V28.5966H33.2745V29.3009C33.2745 29.5182 33.2609 29.7175 33.2322 29.9003H33.2352C32.9844 31.0346 32.1563 31.7793 30.9853 31.7793H30.7964C30.1784 31.7793 29.586 31.5441 29.1795 31.126C28.5872 30.5266 28.5222 29.8868 28.5222 27.9433C28.5222 25.9983 28.5872 25.36 29.1795 24.7606C29.5875 24.344 30.1784 24.1073 30.7964 24.1073H30.9853C32.1563 24.1073 32.9587 24.852 33.2095 25.9863H34.2355C33.9197 24.2377 32.6701 23.2202 30.9868 23.2202H30.7979C29.8777 23.2202 29.036 23.5604 28.4044 24.1852C27.5234 25.0603 27.5234 25.9729 27.5234 27.9418C27.5234 29.9108 27.5234 30.8263 28.4044 31.6999C29.033 32.3277 29.8746 32.6664 30.7964 32.6664Z" fill="white"/>
<path d="M41.5002 30.6237L36.9474 23.2993H36V32.5897H37.0003V25.2383L41.5531 32.5897H42.499V23.2993H41.5002V30.6237Z" fill="white"/>
<path d="M13.5149 12.0776H12.6733L9.22656 21.3665H10.2919L11.0413 19.2672H15.1333L15.8827 21.3665H16.948L13.5149 12.0776ZM11.3451 18.4041L13.1084 13.4997L14.8446 18.4041H11.3451Z" fill="white"/>
<path d="M19.272 21.3665H20.2723V12.9647H23.1146V12.0776H16.4297V12.9647H19.272V21.3665Z" fill="white"/>
<path d="M25.7738 12.0776H24.7734V21.3665H25.7738V12.0776Z" fill="white"/>
<path d="M47.2826 12.0776L43.8359 21.3665H44.9012L45.6507 19.2672H49.7426L50.4921 21.3665H51.5574L48.1243 12.0776H47.2826ZM45.9529 18.4041L47.7163 13.4997L49.4525 18.4041H45.9529Z" fill="white"/>
<path d="M53.9769 20.4794V12.0776H52.9766V21.3665H58.7654V20.4794H53.9769Z" fill="white"/>
<path d="M30.8165 21.4462H30.8301H30.9661H30.9797C31.9 21.4462 32.7416 21.1075 33.3747 20.4797C34.2557 19.6046 34.2557 18.692 34.2557 16.7231C34.2557 14.7526 34.2557 13.8386 33.3747 12.965C32.7416 12.3401 31.8999 12 30.9782 12H30.9646H30.8286H30.815C29.8948 12 29.0531 12.3401 28.4215 12.965C27.5391 13.8386 27.5391 14.7526 27.5391 16.7231C27.5391 18.692 27.5391 19.6046 28.4215 20.4797C29.0531 21.106 29.8963 21.4462 30.8165 21.4462ZM29.1982 13.5389C29.6062 13.1223 30.1985 12.8871 30.8165 12.8871H30.8301H30.9661H30.9797C31.5977 12.8871 32.1901 13.1223 32.5981 13.5389C33.1904 14.1398 33.2554 14.7781 33.2554 16.7231C33.2554 18.6651 33.1904 19.3064 32.5981 19.9058C32.1901 20.3238 31.5977 20.5591 30.9797 20.5591H30.9661H30.8301H30.8165C30.1985 20.5591 29.6062 20.3238 29.1982 19.9058C28.6059 19.3064 28.5409 18.6651 28.5409 16.7231C28.5409 14.7781 28.6059 14.1398 29.1982 13.5389Z" fill="white"/>
<path d="M6.60959 19.402L2.0568 12.0776H1.10938V21.3665H2.10969V14.0151L6.66097 21.3665H7.6084V12.0776H6.60959V19.402Z" fill="white"/>
<path d="M41.5002 19.402L36.9474 12.0776H36V21.3665H37.0003V14.0166L41.5531 21.3665H42.499V12.0776H41.5002V19.402Z" fill="white"/>
</svg>
