<svg width="39" height="56" viewBox="0 0 39 56" fill="none" xmlns="http://www.w3.org/2000/svg">
<path d="M38.3062 27.7742C38.3062 42.5243 28.2105 54.4861 12.5321 54.4861C12.5321 51.7911 12.5321 50.143 12.5321 47.0748C23.1372 46.4425 29.8914 38.0464 29.8914 27.7742C29.8914 17.5123 23.1372 9.11621 12.5321 8.48391C12.5321 5.5712 12.5321 3.91271 12.5321 1.05183C28.2105 1.06219 38.3062 13.024 38.3062 27.7742ZM7.32636 25.3797C7.04111 25.3797 6.81699 25.4108 6.60306 25.5352C6.4095 25.6389 6.13444 25.9084 5.91032 26.2712L5.48245 26.9968C5.30926 27.2974 5.14626 27.515 4.92214 27.6498C4.7082 27.7845 4.48408 27.826 4.20902 27.826C3.86265 27.826 3.57741 27.712 3.38385 27.515C3.20047 27.3285 3.08841 27.0589 3.08841 26.748C3.08841 26.5096 3.16991 26.2712 3.3431 26.095C3.59778 25.8358 3.91359 25.7529 4.34146 25.7529V25.2968C3.86265 25.2968 3.43478 25.3901 3.08841 25.7322C2.84391 25.9809 2.6911 26.3126 2.6911 26.748C2.6911 27.1937 2.8541 27.5565 3.12916 27.8364C3.39403 28.1059 3.79134 28.2717 4.21921 28.2717C4.53502 28.2717 4.86102 28.2095 5.13607 28.0437C5.40095 27.8882 5.62507 27.6291 5.84919 27.2559L6.28725 26.5303C6.46043 26.2504 6.62343 26.0431 6.77624 25.9498C6.93924 25.8565 7.12261 25.8151 7.34673 25.8151C7.61161 25.8151 7.91723 25.898 8.12098 26.1157C8.28397 26.2815 8.36547 26.5096 8.36547 26.7894C8.36547 27.0279 8.29416 27.2663 8.11079 27.4425C7.88667 27.6602 7.64217 27.7431 7.14299 27.7431V28.1992C7.70329 28.1992 8.1006 28.0955 8.39603 27.7949C8.65072 27.5358 8.77297 27.2248 8.77297 26.7998C8.77297 26.4059 8.63034 26.0639 8.39603 25.8151C8.11079 25.5559 7.74404 25.3797 7.32636 25.3797ZM8.65072 29.1528H2.78279V29.6089H8.65072V29.1528ZM8.17191 31.2985H8.65072V30.8424H2.78279V31.2985H7.27542C7.98854 31.2985 8.3451 31.7027 8.3451 32.2106C8.3451 32.7185 7.99873 33.1228 7.27542 33.1228H2.78279V33.5789H7.26524C7.81535 33.5789 8.14135 33.4441 8.37566 33.2057C8.60997 32.9777 8.75259 32.6874 8.75259 32.3143C8.75259 32.0137 8.67109 31.796 8.52847 31.5991C8.44697 31.5161 8.30435 31.3503 8.17191 31.2985ZM8.38585 38.772C8.62016 39.0104 8.74241 39.2903 8.74241 39.7153C8.74241 40.161 8.62016 40.4927 8.40622 40.7C8.15154 40.9591 7.79498 41.0835 7.24486 41.0835H2.78279V40.6378H3.33291C3.16991 40.5652 3.00691 40.4098 2.9356 40.3268C2.78279 40.1402 2.6911 39.9226 2.6911 39.5909C2.6911 39.2592 2.81335 38.9482 3.03748 38.7098C3.2616 38.4921 3.72003 38.3056 4.37202 38.3056C4.93233 38.3056 5.41113 38.4714 5.70657 38.7927C5.97144 39.0726 6.09369 39.3939 6.09369 39.8811V40.6171H7.23467C7.95798 40.6171 8.35528 40.3165 8.35528 39.7049C8.35528 39.4561 8.2636 39.2488 8.12098 39.1141C7.89685 38.886 7.64217 38.8135 7.19392 38.8135V38.3574C7.63198 38.3574 8.07004 38.4507 8.38585 38.772ZM5.71675 39.8604C5.71675 39.5391 5.63526 39.311 5.43151 39.0933C5.21757 38.8653 4.82027 38.7409 4.37202 38.7409C3.59778 38.7409 3.08841 39.0104 3.08841 39.6531C3.08841 40.2439 3.60797 40.6171 4.25996 40.6171H5.71675V39.8604ZM8.52847 43.0115C8.68128 43.2188 8.75259 43.4365 8.75259 43.7267C8.75259 44.0584 8.60997 44.3694 8.35528 44.6078C7.96816 44.9706 7.25505 45.0639 5.72694 45.0639C4.19884 45.0639 3.48572 44.9706 3.0986 44.6078C2.87448 44.4109 2.70129 44.1206 2.70129 43.7267C2.70129 43.4261 2.76242 43.2188 2.89485 43.0115C2.96616 42.9078 3.11897 42.7731 3.25141 42.7005H1.04075V42.2548H8.65072V42.7109H8.17191C8.30435 42.7627 8.44697 42.9182 8.52847 43.0115ZM8.3451 43.6438C8.3451 43.395 8.2636 43.1774 8.11079 43.0115C7.90704 42.8146 7.63198 42.7005 7.19392 42.7005H4.23959C3.80153 42.7005 3.52647 42.8042 3.32272 43.0115C3.16991 43.1774 3.08841 43.395 3.08841 43.6438C3.08841 43.9029 3.20047 44.1206 3.36347 44.2657C3.69965 44.5767 4.32108 44.6078 5.72694 44.6078C7.1328 44.6078 7.75423 44.5767 8.09041 44.2657C8.23304 44.1206 8.3451 43.9029 8.3451 43.6438ZM8.33491 46.3181C8.57941 46.5462 8.74241 46.8675 8.74241 47.3028C8.74241 47.7486 8.57941 48.0595 8.33491 48.2876C7.94779 48.64 7.24486 48.7436 5.71675 48.7436C4.18865 48.7436 3.48572 48.6504 3.0986 48.2876C2.8541 48.0595 2.6911 47.7382 2.6911 47.3028C2.6911 46.8675 2.8541 46.5462 3.0986 46.3181C3.48572 45.9657 4.18865 45.862 5.71675 45.862C7.24486 45.8724 7.94779 45.9657 8.33491 46.3181ZM8.3451 47.3132C8.3451 47.023 8.22285 46.8157 8.08023 46.6705C7.74404 46.3596 7.12261 46.3285 5.71675 46.3285C4.3109 46.3285 3.69965 46.3596 3.35328 46.6705C3.20047 46.8157 3.07822 47.023 3.07822 47.3132C3.07822 47.6034 3.19029 47.8107 3.35328 47.9559C3.68947 48.2668 4.3109 48.2979 5.71675 48.2979C7.12261 48.2979 7.74404 48.2668 8.08023 47.9559C8.23304 47.8107 8.3451 47.5931 8.3451 47.3132ZM8.02929 50.2259H8.65072V49.7698H2.78279V50.2259H7.15317C7.88667 50.2259 8.3451 50.682 8.3451 51.4387V51.4801H8.74241C8.74241 51.0552 8.64053 50.682 8.35528 50.4229C8.30435 50.371 8.14135 50.257 8.02929 50.2259ZM8.33491 52.1228C8.57941 52.3508 8.74241 52.6722 8.74241 53.1075C8.74241 53.5429 8.57941 53.8642 8.33491 54.0923C7.94779 54.4551 7.24486 54.5483 5.71675 54.5483V52.1228C4.3109 52.1228 3.69965 52.1746 3.35328 52.4856C3.20047 52.6307 3.07822 52.8484 3.07822 53.1386C3.07822 53.377 3.14954 53.6258 3.31253 53.7917C3.50609 54.0093 3.8219 54.1026 4.25996 54.1026V54.538C3.67928 54.538 3.35328 54.4032 3.05785 54.1234C2.82354 53.8642 2.6911 53.5118 2.6911 53.1283C2.6911 52.6929 2.8541 52.3612 3.0986 52.1332C3.48572 51.7807 4.18865 51.6667 5.71675 51.6667C7.24486 51.6667 7.94779 51.76 8.33491 52.1228ZM8.3451 53.1075C8.3451 52.8173 8.22285 52.61 8.08023 52.4649C7.7746 52.1746 7.23467 52.1332 6.09369 52.1228V54.0923C7.23467 54.0819 7.7746 54.0301 8.08023 53.7502C8.23304 53.6051 8.3451 53.3874 8.3451 53.1075ZM8.27379 3.42553H9.86302V4.62794H2.78279V3.47736H3.23104C3.11897 3.4048 2.92541 3.19749 2.86429 3.07311C2.76242 2.90726 2.70129 2.68958 2.70129 2.47191C2.6911 2.03655 2.81335 1.69449 3.14954 1.41462C3.62834 1.02073 4.45352 1 5.72694 1C7.00036 1 7.81535 1.02073 8.29416 1.41462C8.60997 1.69449 8.74241 2.00546 8.74241 2.47191C8.74241 2.68958 8.69147 2.90726 8.58959 3.07311C8.52847 3.19749 8.40622 3.33224 8.27379 3.42553ZM7.69311 2.82433C7.69311 2.63775 7.60142 2.47191 7.44861 2.36825C7.18374 2.21277 6.59287 2.2024 5.71675 2.2024C4.85083 2.2024 4.24977 2.21277 3.97471 2.36825C3.83209 2.47191 3.75059 2.64812 3.75059 2.82433C3.75059 2.96945 3.79134 3.12493 3.89321 3.22859C4.01546 3.35298 4.19884 3.42553 4.45352 3.42553H6.99018C7.24486 3.42553 7.42823 3.35298 7.55048 3.22859C7.64217 3.1353 7.69311 2.96945 7.69311 2.82433ZM8.27379 6.02728C8.64053 6.39008 8.74241 6.81506 8.74241 7.31261C8.74241 7.81016 8.64053 8.24551 8.27379 8.59794C7.67273 9.16804 6.48081 9.12658 5.38057 9.13694V6.66995C4.7082 6.66995 4.19884 6.70104 3.9849 6.85653C3.85247 6.93945 3.75059 7.1053 3.75059 7.31261C3.75059 7.51992 3.84228 7.65467 3.9849 7.76869C4.09696 7.86198 4.33127 7.91381 4.50446 7.91381V9.10585C4.02565 9.08512 3.52647 8.95036 3.15972 8.6083C2.82354 8.3077 2.6911 7.84125 2.6911 7.31261C2.6911 6.75287 2.81335 6.37971 3.16991 6.01692C3.66909 5.50901 4.64708 5.45718 5.71675 5.45718C6.79662 5.46754 7.7746 5.51937 8.27379 6.02728ZM7.69311 7.31261C7.69311 7.09493 7.59123 6.96018 7.4588 6.85653C7.2958 6.72177 6.84755 6.66995 6.2465 6.66995V7.92418C6.84755 7.92418 7.2958 7.89308 7.4588 7.74796C7.60142 7.65467 7.69311 7.51992 7.69311 7.31261ZM6.99018 9.70705C6.67437 9.70705 6.39931 9.75888 6.18537 9.90399C5.93069 10.0698 5.68619 10.3704 5.51301 10.7747L5.16664 11.5728C5.07495 11.7905 4.96289 11.946 4.83045 12.0393C4.69802 12.1326 4.55539 12.1637 4.3924 12.1637C4.19884 12.1637 4.02565 12.1015 3.92378 11.9875C3.80153 11.8527 3.75059 11.718 3.75059 11.521C3.75059 11.3655 3.81172 11.179 3.93396 11.0649C4.0664 10.9302 4.25996 10.8576 4.49427 10.8576V9.67595C3.93396 9.67595 3.52647 9.86253 3.16991 10.2046C2.8541 10.5156 2.6911 11.0131 2.6911 11.521C2.6911 12.0289 2.81335 12.4643 3.16991 12.8271C3.47553 13.1277 3.89321 13.3557 4.4739 13.3557C4.8712 13.3557 5.20739 13.2624 5.43151 13.1069C5.70657 12.91 5.90013 12.6405 6.0835 12.2362L6.41968 11.4381C6.51137 11.2308 6.63362 11.0753 6.75587 10.9924C6.85774 10.9198 6.95961 10.8991 7.10224 10.8991C7.27542 10.8991 7.43842 10.9613 7.55048 11.0649C7.65236 11.1686 7.71348 11.3241 7.71348 11.5107C7.71348 11.6661 7.66254 11.8216 7.5403 11.9356C7.41805 12.0497 7.26524 12.1015 7.00036 12.1015V13.2832C7.59123 13.2832 8.00891 13.0966 8.30435 12.7752C8.58959 12.4746 8.75259 12.0186 8.75259 11.521C8.75259 11.0235 8.58959 10.557 8.2636 10.2253C7.9376 9.91436 7.56067 9.70705 6.99018 9.70705ZM8.49791 14.1228H2.78279V15.3252H8.49791V14.1228ZM8.22285 21.9695H8.65072V20.8085H2.78279V22.0109H7.01055C7.46898 22.0109 7.69311 22.2701 7.69311 22.6018C7.69311 22.9335 7.46898 23.1926 7.01055 23.1926H2.78279V24.395H7.02074C7.70329 24.395 8.0191 24.2914 8.29416 24.0529C8.60997 23.7834 8.75259 23.4517 8.75259 22.9646C8.75259 22.7469 8.70166 22.5396 8.59978 22.3634C8.5081 22.2182 8.35529 22.0731 8.22285 21.9695ZM1.44824 36.9269C1.20375 36.6989 1.04075 36.3568 1.04075 35.9526C1.04075 35.5483 1.163 35.2063 1.4075 34.9471C1.70293 34.6569 2.05949 34.5636 2.62998 34.5636V35.0093C2.23267 35.0093 1.91686 35.0611 1.68255 35.2995C1.51956 35.4654 1.44824 35.7038 1.44824 35.9422C1.44824 36.2324 1.56031 36.4398 1.7233 36.5849C1.98818 36.8336 2.44661 36.9062 3.33291 36.9062H3.69965C3.58759 36.8544 3.41441 36.6989 3.35328 36.5952C3.21066 36.3983 3.14954 36.1806 3.14954 35.88C3.14954 35.5483 3.29216 35.2374 3.54684 34.9989C3.93396 34.6362 4.42296 34.5429 5.96125 34.5429C7.49955 34.5429 7.97835 34.6362 8.36547 34.9989C8.58959 35.2063 8.76278 35.4861 8.76278 35.88C8.76278 36.1703 8.69147 36.3879 8.53866 36.5952C8.46735 36.6885 8.31454 36.844 8.1821 36.9062H8.66091V37.3623H3.29216C2.23267 37.3519 1.82518 37.269 1.44824 36.9269ZM3.76078 36.5952C3.96453 36.8025 4.23959 36.9062 4.67764 36.9062H7.19392C7.63198 36.9062 7.90704 36.8025 8.11079 36.5952C8.2636 36.4294 8.3451 36.2117 8.3451 35.9629C8.3451 35.7038 8.23304 35.4861 8.08023 35.341C7.74404 35.03 7.34673 34.9989 5.94088 34.9989C4.53502 34.9989 4.13771 35.03 3.80153 35.341C3.64872 35.4861 3.53666 35.6934 3.53666 35.9629C3.52647 36.2117 3.60797 36.4294 3.76078 36.5952ZM1.46862 19.2848C1.17319 18.9842 1 18.497 1 18.0202C1 17.533 1.14262 17.0769 1.44824 16.7556C1.79462 16.4032 2.23267 16.2684 2.71148 16.2684V17.4397C2.49754 17.4397 2.30398 17.4812 2.16136 17.6056C2.0493 17.7092 1.98818 17.8544 1.98818 18.0306C1.98818 18.2068 2.06967 18.3519 2.17155 18.4556C2.31417 18.5799 2.51792 18.6214 2.88466 18.6214H3.8219C3.68947 18.5178 3.56722 18.4037 3.50609 18.2897C3.40422 18.1342 3.37366 17.958 3.37366 17.7196C3.37366 17.2324 3.49591 16.9733 3.80153 16.7038C4.2294 16.3306 4.74895 16.2373 5.98163 16.2373C7.2143 16.2373 7.88667 16.341 8.31454 16.7038C8.62016 16.9733 8.74241 17.2117 8.74241 17.7196C8.74241 17.9269 8.69147 18.1446 8.58959 18.3208C8.52847 18.4452 8.40622 18.5799 8.28397 18.6629H8.66091V19.8031H2.96616C2.22248 19.7823 1.78443 19.6061 1.46862 19.2848ZM4.38221 18.0202C4.38221 18.1861 4.43315 18.3415 4.54521 18.4452C4.66746 18.5488 4.83045 18.611 5.07495 18.611H7.01055C7.25505 18.611 7.42823 18.5488 7.55048 18.4348C7.66254 18.3312 7.71348 18.1861 7.71348 18.0202C7.71348 17.8129 7.61161 17.6989 7.46898 17.5849C7.23467 17.4086 6.68456 17.4086 5.97144 17.4086C5.25832 17.4086 4.84064 17.4086 4.60633 17.5849C4.4739 17.6885 4.38221 17.8025 4.38221 18.0202Z" fill="white"/>
</svg>
