<svg width="81" height="56" viewBox="0 0 81 56" fill="none" xmlns="http://www.w3.org/2000/svg">
<path d="M29.6452 12.0039H28.8516V20.6021H29.6452V12.0039Z" fill="white"/>
<path d="M32.7354 12.7558H31.8405V19.8523H32.7354C34.6932 19.8523 36.8433 19.5286 36.8433 16.304C36.8433 13.0795 34.6932 12.7558 32.7354 12.7558ZM32.7617 12.0039C35.501 12.0039 37.6876 12.9504 37.6876 16.302C37.6876 19.6556 35.499 20.6001 32.7617 20.6001H31.0469V12.0039H32.7617Z" fill="white"/>
<path d="M51.2806 20.6021L46.5593 12.8725V20.6021H45.7656V12.0039H46.9176L51.639 19.7478V12.0039H52.4326V20.6021H51.2806Z" fill="white"/>
<path d="M56.2334 12.7558H53.3281V12.0039H59.9304V12.7558H57.0271V20.6021H56.2334V12.7558Z" fill="white"/>
<path d="M2.68852 24.3533H1.79364V31.4499H2.68852C4.64631 31.4499 6.79644 31.1262 6.79644 27.9016C6.79644 24.6791 4.64833 24.3533 2.68852 24.3533ZM2.71484 23.6035C5.45413 23.6035 7.6407 24.5479 7.6407 27.9016C7.6407 31.2552 5.4521 32.1997 2.71484 32.1997H1V23.6035H2.71484Z" fill="white"/>
<path d="M22.8093 23.5791H22.0156V32.1773H22.8093V23.5791Z" fill="white"/>
<path d="M38.1947 32.2017L33.4733 24.4701V32.2017H32.6797V23.6035H33.8317L38.5531 31.3454V23.6035H39.3467V32.2017H38.1947Z" fill="white"/>
<path d="M44.075 29.2619H47.5816L45.8161 24.6012L44.075 29.2619ZM45.393 23.6035H46.2879L49.5758 32.2017H48.7073L47.8752 30.0138H43.7936L42.9756 32.2017H42.1172L45.393 23.6035Z" fill="white"/>
<path d="M56.24 31.1385L58.3902 23.6035H59.2466L56.6612 32.2017H55.7541L53.847 25.015L51.9519 32.2017H51.0449L48.4453 23.6035H49.3301L51.5308 31.1385L53.4117 23.6035H54.2944L56.24 31.1385Z" fill="white"/>
<path d="M60.0964 29.2619H63.603L61.8376 24.6012L60.0964 29.2619ZM61.4144 23.6035H62.3093L65.5972 32.2017H64.7267L63.8966 30.0138H59.815L58.997 32.2017H58.1406L61.4144 23.6035Z" fill="white"/>
<path d="M75.0479 24.3533H74.153V31.4499H75.0479C77.0057 31.4499 79.1558 31.1262 79.1558 27.9016C79.1558 24.6791 77.0057 24.3533 75.0479 24.3533ZM75.0742 23.6035C77.8115 23.6035 80.0001 24.5479 80.0001 27.9016C80.0001 31.2552 77.8115 32.1997 75.0742 32.1997H73.3594V23.6035H75.0742Z" fill="white"/>
<path d="M13.7042 19.0433L13.109 17.6973C12.8336 17.0254 12.3639 16.7344 12.2809 16.7344L12.2708 16.7365C13.4126 16.4005 13.9593 15.62 13.9593 14.3969C13.9573 12.3626 12.4995 12 10.4385 12H8.03125V20.6023H8.82489V16.884V16.1321V12.7519H10.5397C11.961 12.7519 13.1272 12.883 13.1272 14.4236C13.1272 15.9662 11.961 16.1342 10.5397 16.1342H9.58007V16.886H10.805C11.5763 16.886 12.0136 17.3777 12.3457 18.0517L12.7931 19.0433L13.5017 20.6044H14.4108L13.7042 19.0433Z" fill="white"/>
<path d="M71.927 30.6448L71.3297 29.2989C71.0544 28.6269 70.5847 28.336 70.4996 28.336L70.4895 28.3381C71.6314 28.0021 72.178 27.2215 72.178 25.9985C72.178 23.9642 70.7183 23.6016 68.6573 23.6016H66.25V32.2039H67.0436V28.4856V27.7337V24.3514H68.7585C70.1798 24.3514 71.3439 24.4804 71.3439 26.0231C71.3439 27.5657 70.1777 27.7337 68.7585 27.7337H67.7988V28.4856H69.0278C69.7991 28.4856 70.2364 28.9772 70.5685 29.6512L71.0179 30.6428L71.7265 32.2039H72.6356L71.927 30.6448Z" fill="white"/>
<path d="M3.45787 12.0039H1V20.6021H1.79364V16.4966V12.7558H3.5591C4.97834 12.7558 6.15666 13.0282 6.15666 14.6467C6.15666 16.2774 4.97834 16.4987 3.5591 16.4987H2.5468V17.2505H3.45787C5.51891 17.2505 6.98877 16.7588 6.98877 14.6487C6.98877 12.5468 5.51689 12.0039 3.45787 12.0039Z" fill="white"/>
<path d="M27.8031 32.3309C25.333 32.3309 23.9766 30.5055 23.9766 27.8771C23.9766 25.1975 25.4343 23.4233 27.9043 23.4233C29.7345 23.4233 31.0768 24.4067 31.4615 26.0907L30.6294 26.2075C30.2832 24.7447 29.0421 24.1875 27.878 24.1875C26.151 24.1875 24.8188 25.4699 24.8188 27.8771C24.8188 30.1941 26.0477 31.5667 27.8132 31.5667C29.2567 31.5667 30.6922 31.0607 30.6922 28.9506V28.6269H28.2728V27.8771H31.4595V28.8994C31.4615 31.0976 30.2528 32.3309 27.8031 32.3309Z" fill="white"/>
<path d="M62.9431 14.0239C62.9877 14.0034 63.2185 13.8948 63.6558 13.7535C64.1437 13.5957 64.3401 13.5916 64.3401 13.5916L64.1478 12.9873C64.1478 12.9873 63.9514 12.9893 63.4635 13.1491C63.0666 13.2782 62.8399 13.3786 62.769 13.4113C62.7589 13.3581 62.7306 13.1512 62.7306 12.7148C62.7306 12.1965 62.7731 12.0039 62.7731 12.0039H62.1455C62.1455 12.0039 62.1029 12.1985 62.1029 12.7148C62.1029 13.1921 62.1374 13.3929 62.1434 13.4216C62.0786 13.4154 61.8782 13.3908 61.4854 13.2618C60.9995 13.102 60.7627 12.9873 60.7627 12.9873L60.5703 13.5916C60.5703 13.5916 60.8052 13.7084 61.2931 13.8661C61.6636 13.987 61.864 14.0177 61.941 14.0239C61.9187 14.0792 61.8337 14.2656 61.5846 14.6118C61.283 15.0298 61.1008 15.2203 61.1008 15.2203L61.6089 15.5932C61.6089 15.5932 61.7911 15.4026 62.0928 14.9847C62.3297 14.6528 62.4188 14.4684 62.4471 14.4049C62.5058 14.4684 62.6678 14.6549 62.9067 14.9867C63.2084 15.4047 63.2711 15.5932 63.2711 15.5932L63.7773 15.2203C63.7773 15.2203 63.7125 15.0318 63.4129 14.6139C63.1598 14.2656 62.9917 14.0771 62.9431 14.0239Z" fill="white"/>
<path d="M16.1041 12.7558H20.8397V12.0039H15.3125V20.6021H20.8397V19.8503H16.1041V16.5232H16.1061V15.7714H16.1041V12.7558Z" fill="white"/>
<path d="M20.3015 16.0254H16.8516V16.767H20.3015V16.0254Z" fill="white"/>
<path d="M39.6296 12.7558H44.3651V12.0039H38.8359V20.6021H44.3651V19.8503H39.6296V16.5232H39.6316V15.7714H39.6296V12.7558Z" fill="white"/>
<path d="M43.8269 16.0254H40.375V16.767H43.8269V16.0254Z" fill="white"/>
<path d="M9.41864 24.3553H14.1522V23.6055H8.625V32.2037H14.1522V31.4518H9.41864V28.1248H9.42067V27.3729H9.41864V24.3553Z" fill="white"/>
<path d="M13.614 27.627H10.1641V28.3686H13.614V27.627Z" fill="white"/>
<path d="M27.7333 40.9025H31.2399L29.4744 36.2418L27.7333 40.9025ZM29.0513 35.2441H29.9461L33.2341 43.8423H32.3635L31.5314 41.6544H27.4498L26.6319 43.8423H25.7734L29.0513 35.2441Z" fill="white"/>
<path d="M9.02021 35.248H8.22656V43.8442H9.02021V35.248Z" fill="white"/>
<path d="M15.8353 43.8443L11.114 36.1147V43.8443H10.3203V35.2461H11.4723L16.1937 42.99V35.2461H16.9873V43.8443H15.8353Z" fill="white"/>
<path d="M44.7197 35.8544C42.94 35.8544 41.6099 37.1491 41.6099 39.544C41.6099 41.9389 42.94 43.2336 44.7197 43.2336C46.4973 43.2336 47.8153 41.9389 47.8153 39.544C47.8173 37.1491 46.4973 35.8544 44.7197 35.8544ZM44.7075 43.9998C42.2638 43.9998 40.7656 42.1991 40.7656 39.5461C40.7656 36.891 42.3651 35.0923 44.7318 35.0923C47.0986 35.0923 48.6595 36.7496 48.6595 39.5461C48.6616 42.3425 47.0621 43.9998 44.7075 43.9998Z" fill="white"/>
<path d="M55.339 42.2874L54.7418 40.9415C54.4664 40.2695 53.9967 39.9786 53.9137 39.9786L53.9036 39.9806C55.0455 39.6447 55.5921 38.8641 55.5921 37.6411C55.5921 35.6068 54.1324 35.2441 52.0713 35.2441H49.6641V43.8464H50.4577V40.1281V39.3763V35.9939H52.1746C53.5958 35.9939 54.762 36.123 54.762 37.6657C54.762 39.2083 53.5958 39.3763 52.1746 39.3763H51.2149V40.1281H52.4398C53.2112 40.1281 53.6485 40.6198 53.9805 41.2938L54.428 42.2854L55.1366 43.8464H56.0456L55.339 42.2874Z" fill="white"/>
<path d="M36.4793 35.2461H34.0234V43.8443H34.8171V39.7408V35.9979H36.5825C38.0018 35.9979 39.1801 36.2704 39.1801 37.8889C39.1801 39.5196 38.0018 39.7408 36.5825 39.7408H35.5702V40.4927H36.4813C38.5424 40.4927 40.0122 40.001 40.0122 37.8889C40.0102 35.791 38.5403 35.2461 36.4793 35.2461Z" fill="white"/>
<path d="M21.8499 43.9998C19.3799 43.9998 18.0234 42.1745 18.0234 39.5461C18.0234 36.8664 19.4812 35.0923 21.9512 35.0923C23.7814 35.0923 25.1237 36.0756 25.5084 37.7596L24.6763 37.8764C24.3301 36.4137 23.089 35.8564 21.9248 35.8564C20.1979 35.8564 18.8657 37.1389 18.8657 39.5461C18.8657 41.8631 20.0946 43.2357 21.8601 43.2357C23.3036 43.2357 24.739 42.7297 24.739 40.6196V40.2959H22.3196V39.544H25.5064V40.5663C25.5104 42.7665 24.3017 43.9998 21.8499 43.9998Z" fill="white"/>
<path d="M57.7233 35.996H62.4569V35.2441H56.9297V43.8423H62.4569V43.0905H57.7233V39.7635H57.7254V39.0137H57.7233V35.996Z" fill="white"/>
<path d="M61.9207 39.2676H58.4688V40.0092H61.9207V39.2676Z" fill="white"/>
<path d="M22.2931 19.8646H24.6983C25.6114 19.8646 26.9963 19.5655 26.9963 18.3035C26.9963 17.2792 25.9961 16.8551 24.8482 16.5908L23.8116 16.3532C22.7122 16.1033 21.625 15.5788 21.625 14.2042C21.625 12.641 23.1819 12.0039 24.5141 12.0039H26.6298V12.7353L24.4392 12.7414C23.599 12.7414 22.4267 13.0672 22.4267 14.1673C22.4267 15.0175 23.1171 15.417 24.0201 15.6157L25.0081 15.841C26.2188 16.1156 27.8122 16.5786 27.8122 18.1786C27.8122 19.7908 26.3545 20.6021 24.7368 20.6021H22.2931V19.8646Z" fill="white"/>
<path d="M65.7853 19.8646H68.1905C69.1057 19.8646 70.4885 19.5655 70.4885 18.3035C70.4885 17.2792 69.4883 16.8551 68.3404 16.5908L67.3038 16.3532C66.2044 16.1033 65.1172 15.5788 65.1172 14.2042C65.1172 12.641 66.6741 12.0039 68.0063 12.0039H70.122V12.7353L67.9314 12.7414C67.0912 12.7414 65.9189 13.0672 65.9189 14.1673C65.9189 15.0175 66.6093 15.417 67.5123 15.6157L68.5003 15.841C69.711 16.1156 71.3044 16.5786 71.3044 18.1786C71.3044 19.7908 69.8467 20.6021 68.229 20.6021H65.7853V19.8646Z" fill="white"/>
<path d="M15.5275 31.4378H17.9327C18.8458 31.4378 20.2306 31.1387 20.2306 29.8768C20.2306 28.8524 19.2305 28.4284 18.0825 28.1641L17.0459 27.9264C15.9466 27.6765 14.8594 27.1521 14.8594 25.7774C14.8594 24.2143 16.4163 23.5771 17.7485 23.5771H19.8642V24.3085L17.6736 24.3147C16.8334 24.3147 15.6611 24.6404 15.6611 25.7405C15.6611 26.5907 16.3515 26.9902 17.2545 27.1889L18.2425 27.4143C19.4532 27.6888 21.0466 28.1518 21.0466 29.7518C21.0466 31.3641 19.5888 32.1754 17.9712 32.1754H15.5255L15.5275 31.4378Z" fill="white"/>
<path d="M1.67014 43.1087H4.07537C4.98847 43.1087 6.3733 42.8096 6.3733 41.5477C6.3733 40.5233 5.37314 40.0993 4.22519 39.835L3.1886 39.5973C2.08721 39.3474 1 38.823 1 37.4483C1 35.8852 2.55692 35.248 3.88911 35.248H6.00482V35.9794L3.8142 35.9856C2.97399 35.9856 1.80174 36.3113 1.80174 37.4114C1.80174 38.2616 2.49416 38.6611 3.39511 38.8598L4.38311 39.0852C5.59382 39.3597 7.18719 39.8227 7.18719 41.4227C7.18719 43.035 5.72947 43.8463 4.11181 43.8463H1.66812L1.67014 43.1087Z" fill="white"/>
</svg>
